<?xml version="1.0" encoding="utf-8" standalone="no"?>
<!DOCTYPE svg PUBLIC "-//W3C//DTD SVG 1.1//EN"
  "http://www.w3.org/Graphics/SVG/1.1/DTD/svg11.dtd">
<svg xmlns:xlink="http://www.w3.org/1999/xlink" width="474.58875pt" height="285.18pt" viewBox="0 0 474.58875 285.18" xmlns="http://www.w3.org/2000/svg" version="1.1">
 <metadata>
  <rdf:RDF xmlns:dc="http://purl.org/dc/elements/1.1/" xmlns:cc="http://creativecommons.org/ns#" xmlns:rdf="http://www.w3.org/1999/02/22-rdf-syntax-ns#">
   <cc:Work>
    <dc:type rdf:resource="http://purl.org/dc/dcmitype/StillImage"/>
    <dc:date>2026-07-18T16:21:37.472599</dc:date>
    <dc:format>image/svg+xml</dc:format>
    <dc:creator>
     <cc:Agent>
      <dc:title>Matplotlib v3.9.0, https://matplotlib.org/</dc:title>
     </cc:Agent>
    </dc:creator>
   </cc:Work>
  </rdf:RDF>
 </metadata>
 <defs>
  <style type="text/css">*{stroke-linejoin: round; stroke-linecap: butt}</style>
 </defs>
 <g id="figure_1">
  <g id="patch_1">
   <path d="M 0 285.18
L 474.58875 285.18
L 474.58875 0
L 0 0
z
" style="fill: #ffffff"/>
  </g>
  <g id="axes_1">
   <g id="patch_2">
    <path d="M 97.794375 268.08
L 376.794375 268.08
L 376.794375 18.6
L 97.794375 18.6
z
" style="fill: #ffffff"/>
   </g>
   <g id="patch_3">
    <path d="M 110.476193 268.08
L 223.203466 268.08
L 223.203466 30.48
L 110.476193 30.48
z
" clip-path="url(#pc5bc09ac9e)" style="fill: #d3d3d3"/>
   </g>
   <g id="patch_4">
    <path d="M 251.385284 268.08
L 364.112557 268.08
L 364.112557 30.821334
L 251.385284 30.821334
z
" clip-path="url(#pc5bc09ac9e)" style="fill: #1f77b4"/>
   </g>
   <g id="matplotlib.axis_1">
    <g id="xtick_1">
     <g id="line2d_1">
      <defs>
       <path id="m953cf869ca" d="M 0 0
L 0 -3
" style="stroke: #000000; stroke-width: 0.5"/>
      </defs>
      <g>
       <use xlink:href="#m953cf869ca" x="166.83983" y="268.08" style="stroke: #000000; stroke-width: 0.5"/>
      </g>
     </g>
     <g id="line2d_2">
      <defs>
       <path id="m46896d3464" d="M 0 0
L 0 3
" style="stroke: #000000; stroke-width: 0.5"/>
      </defs>
      <g>
       <use xlink:href="#m46896d3464" x="166.83983" y="18.6" style="stroke: #000000; stroke-width: 0.5"/>
      </g>
     </g>
     <g id="text_1">
      <!-- all cadences -->
      <g transform="translate(141.006236 278.519062) scale(0.1 -0.1)">
       <defs>
        <path id="Cmr10-61" d="M 256 628
Q 256 1009 556 1248
Q 856 1488 1276 1586
Q 1697 1684 2075 1684
L 2075 1947
Q 2075 2131 1994 2304
Q 1913 2478 1759 2589
Q 1606 2700 1422 2700
Q 997 2700 775 2509
Q 897 2509 976 2417
Q 1056 2325 1056 2203
Q 1056 2075 965 1984
Q 875 1894 750 1894
Q 622 1894 531 1984
Q 441 2075 441 2203
Q 441 2541 747 2705
Q 1053 2869 1422 2869
Q 1681 2869 1943 2758
Q 2206 2647 2373 2440
Q 2541 2234 2541 1959
L 2541 519
Q 2541 394 2594 289
Q 2647 184 2759 184
Q 2866 184 2917 290
Q 2969 397 2969 519
L 2969 928
L 3156 928
L 3156 519
Q 3156 375 3081 245
Q 3006 116 2879 39
Q 2753 -38 2606 -38
Q 2419 -38 2283 107
Q 2147 253 2131 453
Q 2013 213 1781 70
Q 1550 -72 1288 -72
Q 1044 -72 808 0
Q 572 72 414 226
Q 256 381 256 628
z
M 775 628
Q 775 403 940 250
Q 1106 97 1331 97
Q 1538 97 1706 200
Q 1875 303 1975 481
Q 2075 659 2075 856
L 2075 1522
Q 1784 1522 1479 1426
Q 1175 1331 975 1128
Q 775 925 775 628
z
" transform="scale(0.015625)"/>
        <path id="Cmr10-6c" d="M 197 0
L 197 225
Q 416 225 556 259
Q 697 294 697 428
L 697 3788
Q 697 3959 645 4036
Q 594 4113 497 4130
Q 400 4147 197 4147
L 197 4372
L 1147 4441
L 1147 428
Q 1147 294 1287 259
Q 1428 225 1644 225
L 1644 0
L 197 0
z
" transform="scale(0.015625)"/>
        <path id="Cmr10-20" transform="scale(0.015625)"/>
        <path id="Cmr10-63" d="M 1594 -72
Q 1206 -72 890 129
Q 575 331 394 667
Q 213 1003 213 1381
Q 213 1759 392 2106
Q 572 2453 889 2661
Q 1206 2869 1594 2869
Q 1969 2869 2276 2722
Q 2584 2575 2584 2241
Q 2584 2116 2495 2023
Q 2406 1931 2278 1931
Q 2150 1931 2061 2023
Q 1972 2116 1972 2241
Q 1972 2353 2044 2436
Q 2116 2519 2222 2541
Q 2000 2681 1600 2681
Q 1294 2681 1106 2478
Q 919 2275 844 1975
Q 769 1675 769 1381
Q 769 1072 861 783
Q 953 494 1158 305
Q 1363 116 1672 116
Q 1975 116 2187 302
Q 2400 488 2478 788
Q 2478 825 2528 825
L 2606 825
Q 2625 825 2640 808
Q 2656 791 2656 769
L 2656 750
Q 2559 372 2271 150
Q 1984 -72 1594 -72
z
" transform="scale(0.015625)"/>
        <path id="Cmr10-64" d="M 1563 -72
Q 1184 -72 871 133
Q 559 338 386 672
Q 213 1006 213 1381
Q 213 1769 402 2101
Q 591 2434 916 2631
Q 1241 2828 1631 2828
Q 1866 2828 2075 2729
Q 2284 2631 2438 2456
L 2438 3788
Q 2438 3959 2386 4036
Q 2334 4113 2239 4130
Q 2144 4147 1941 4147
L 1941 4372
L 2888 4441
L 2888 581
Q 2888 413 2939 336
Q 2991 259 3086 242
Q 3181 225 3384 225
L 3384 0
L 2419 -72
L 2419 331
Q 2253 141 2025 34
Q 1797 -72 1563 -72
z
M 909 556
Q 1019 347 1201 222
Q 1384 97 1600 97
Q 1866 97 2087 250
Q 2309 403 2419 647
L 2419 2181
Q 2344 2322 2230 2433
Q 2116 2544 1973 2603
Q 1831 2663 1672 2663
Q 1338 2663 1134 2473
Q 931 2284 850 1990
Q 769 1697 769 1375
Q 769 1119 795 928
Q 822 738 909 556
z
" transform="scale(0.015625)"/>
        <path id="Cmr10-65" d="M 1594 -72
Q 1203 -72 876 133
Q 550 338 364 680
Q 178 1022 178 1403
Q 178 1778 348 2115
Q 519 2453 823 2661
Q 1128 2869 1503 2869
Q 1797 2869 2014 2770
Q 2231 2672 2372 2497
Q 2513 2322 2584 2084
Q 2656 1847 2656 1563
Q 2656 1478 2591 1478
L 738 1478
L 738 1409
Q 738 878 952 497
Q 1166 116 1650 116
Q 1847 116 2014 203
Q 2181 291 2304 447
Q 2428 603 2472 781
Q 2478 803 2495 820
Q 2513 838 2534 838
L 2591 838
Q 2656 838 2656 756
Q 2566 394 2266 161
Q 1966 -72 1594 -72
z
M 744 1638
L 2203 1638
Q 2203 1878 2136 2125
Q 2069 2372 1912 2536
Q 1756 2700 1503 2700
Q 1141 2700 942 2361
Q 744 2022 744 1638
z
" transform="scale(0.015625)"/>
        <path id="Cmr10-6e" d="M 191 0
L 191 225
Q 409 225 550 259
Q 691 294 691 428
L 691 2175
Q 691 2347 639 2423
Q 588 2500 491 2517
Q 394 2534 191 2534
L 191 2759
L 1119 2828
L 1119 2203
Q 1247 2478 1498 2653
Q 1750 2828 2047 2828
Q 2491 2828 2714 2615
Q 2938 2403 2938 1966
L 2938 428
Q 2938 294 3078 259
Q 3219 225 3438 225
L 3438 0
L 1972 0
L 1972 225
Q 2191 225 2331 259
Q 2472 294 2472 428
L 2472 1947
Q 2472 2259 2381 2461
Q 2291 2663 2009 2663
Q 1638 2663 1398 2366
Q 1159 2069 1159 1691
L 1159 428
Q 1159 294 1300 259
Q 1441 225 1656 225
L 1656 0
L 191 0
z
" transform="scale(0.015625)"/>
        <path id="Cmr10-73" d="M 213 -19
L 213 1025
Q 213 1075 269 1075
L 347 1075
Q 384 1075 397 1025
Q 575 97 1259 97
Q 1563 97 1767 234
Q 1972 372 1972 659
Q 1972 866 1812 1011
Q 1653 1156 1434 1209
L 1006 1294
Q 791 1341 614 1437
Q 438 1534 325 1695
Q 213 1856 213 2069
Q 213 2350 361 2529
Q 509 2709 746 2789
Q 984 2869 1259 2869
Q 1588 2869 1831 2694
L 2016 2853
Q 2016 2869 2047 2869
L 2094 2869
Q 2113 2869 2128 2851
Q 2144 2834 2144 2816
L 2144 1978
Q 2144 1919 2094 1919
L 2016 1919
Q 1959 1919 1959 1978
Q 1959 2313 1773 2516
Q 1588 2719 1253 2719
Q 966 2719 755 2612
Q 544 2506 544 2247
Q 544 2069 695 1955
Q 847 1841 1050 1791
L 1484 1709
Q 1703 1659 1892 1540
Q 2081 1422 2192 1240
Q 2303 1059 2303 831
Q 2303 600 2223 429
Q 2144 259 2001 146
Q 1859 34 1665 -19
Q 1472 -72 1259 -72
Q 859 -72 575 197
L 341 -56
Q 341 -72 306 -72
L 269 -72
Q 213 -72 213 -19
z
" transform="scale(0.015625)"/>
       </defs>
       <use xlink:href="#Cmr10-61"/>
       <use xlink:href="#Cmr10-6c" x="50"/>
       <use xlink:href="#Cmr10-6c" x="77.685547"/>
       <use xlink:href="#Cmr10-20" x="105.371094"/>
       <use xlink:href="#Cmr10-63" x="138.671875"/>
       <use xlink:href="#Cmr10-61" x="183.056641"/>
       <use xlink:href="#Cmr10-64" x="233.056641"/>
       <use xlink:href="#Cmr10-65" x="288.574219"/>
       <use xlink:href="#Cmr10-6e" x="332.958984"/>
       <use xlink:href="#Cmr10-63" x="388.476562"/>
       <use xlink:href="#Cmr10-65" x="432.861328"/>
       <use xlink:href="#Cmr10-73" x="477.246094"/>
      </g>
     </g>
    </g>
    <g id="xtick_2">
     <g id="line2d_3">
      <g>
       <use xlink:href="#m953cf869ca" x="307.74892" y="268.08" style="stroke: #000000; stroke-width: 0.5"/>
      </g>
     </g>
     <g id="line2d_4">
      <g>
       <use xlink:href="#m46896d3464" x="307.74892" y="18.6" style="stroke: #000000; stroke-width: 0.5"/>
      </g>
     </g>
     <g id="text_2">
      <!-- kept (default) -->
      <g transform="translate(277.510639 279.08) scale(0.1 -0.1)">
       <defs>
        <path id="Cmr10-6b" d="M 166 0
L 166 225
Q 384 225 525 259
Q 666 294 666 428
L 666 3788
Q 666 3959 614 4036
Q 563 4113 466 4130
Q 369 4147 166 4147
L 166 4372
L 1113 4441
L 1113 1403
L 1972 2156
Q 2100 2278 2100 2381
Q 2100 2456 2047 2495
Q 1994 2534 1919 2534
L 1919 2759
L 3122 2759
L 3122 2534
Q 2688 2534 2253 2156
L 1797 1759
L 2613 603
Q 2781 363 2895 294
Q 3009 225 3272 225
L 3272 0
L 1997 0
L 1997 225
Q 2216 225 2216 359
Q 2216 456 2100 603
L 1484 1478
L 1094 1141
L 1094 428
Q 1094 294 1236 259
Q 1378 225 1594 225
L 1594 0
L 166 0
z
" transform="scale(0.015625)"/>
        <path id="Cmr10-70" d="M 166 -1241
L 166 -1019
Q 384 -1019 525 -981
Q 666 -944 666 -813
L 666 2272
Q 666 2447 541 2490
Q 416 2534 166 2534
L 166 2759
L 1113 2828
L 1113 2431
Q 1288 2625 1520 2726
Q 1753 2828 2016 2828
Q 2394 2828 2697 2623
Q 3000 2419 3170 2086
Q 3341 1753 3341 1381
Q 3341 994 3152 659
Q 2963 325 2636 126
Q 2309 -72 1919 -72
Q 1453 -72 1131 306
L 1131 -813
Q 1131 -944 1273 -981
Q 1416 -1019 1631 -1019
L 1631 -1241
L 166 -1241
z
M 1131 622
Q 1244 394 1444 245
Q 1644 97 1881 97
Q 2103 97 2273 215
Q 2444 334 2559 534
Q 2675 734 2729 954
Q 2784 1175 2784 1381
Q 2784 1638 2692 1936
Q 2600 2234 2411 2439
Q 2222 2644 1953 2644
Q 1694 2644 1476 2511
Q 1259 2378 1131 2150
L 1131 622
z
" transform="scale(0.015625)"/>
        <path id="Cmr10-74" d="M 653 769
L 653 2534
L 122 2534
L 122 2700
Q 541 2700 737 3090
Q 934 3481 934 3938
L 1119 3938
L 1119 2759
L 2022 2759
L 2022 2534
L 1119 2534
L 1119 781
Q 1119 516 1208 316
Q 1297 116 1528 116
Q 1747 116 1844 327
Q 1941 538 1941 781
L 1941 1159
L 2125 1159
L 2125 769
Q 2125 569 2051 373
Q 1978 178 1834 53
Q 1691 -72 1484 -72
Q 1100 -72 876 158
Q 653 388 653 769
z
" transform="scale(0.015625)"/>
        <path id="Cmr10-28" d="M 1984 -1588
Q 1628 -1306 1370 -942
Q 1113 -578 948 -165
Q 784 247 703 697
Q 622 1147 622 1600
Q 622 2059 703 2509
Q 784 2959 951 3375
Q 1119 3791 1378 4153
Q 1638 4516 1984 4788
Q 1984 4800 2016 4800
L 2075 4800
Q 2094 4800 2109 4783
Q 2125 4766 2125 4744
Q 2125 4716 2113 4703
Q 1800 4397 1592 4047
Q 1384 3697 1257 3301
Q 1131 2906 1075 2482
Q 1019 2059 1019 1600
Q 1019 -434 2106 -1491
Q 2125 -1509 2125 -1544
Q 2125 -1559 2108 -1579
Q 2091 -1600 2075 -1600
L 2016 -1600
Q 1984 -1600 1984 -1588
z
" transform="scale(0.015625)"/>
        <path id="Cmr10-66" d="M 206 0
L 206 225
Q 422 225 562 259
Q 703 294 703 428
L 703 2534
L 213 2534
L 213 2759
L 703 2759
L 703 3525
Q 703 3731 789 3911
Q 875 4091 1020 4225
Q 1166 4359 1355 4436
Q 1544 4513 1747 4513
Q 1963 4513 2136 4384
Q 2309 4256 2309 4044
Q 2309 3922 2226 3839
Q 2144 3756 2022 3756
Q 1900 3756 1814 3839
Q 1728 3922 1728 4044
Q 1728 4244 1900 4313
Q 1797 4347 1716 4347
Q 1528 4347 1395 4214
Q 1263 4081 1197 3890
Q 1131 3700 1131 3513
L 1131 2759
L 1869 2759
L 1869 2534
L 1153 2534
L 1153 428
Q 1153 297 1340 261
Q 1528 225 1772 225
L 1772 0
L 206 0
z
" transform="scale(0.015625)"/>
        <path id="Cmr10-75" d="M 691 763
L 691 2175
Q 691 2347 639 2423
Q 588 2500 491 2517
Q 394 2534 191 2534
L 191 2759
L 1159 2828
L 1159 763
Q 1159 513 1195 373
Q 1231 234 1348 165
Q 1466 97 1722 97
Q 2066 97 2269 384
Q 2472 672 2472 1038
L 2472 2175
Q 2472 2347 2419 2423
Q 2366 2500 2270 2517
Q 2175 2534 1972 2534
L 1972 2759
L 2938 2828
L 2938 581
Q 2938 413 2989 336
Q 3041 259 3137 242
Q 3234 225 3438 225
L 3438 0
L 2491 -72
L 2491 469
Q 2372 228 2159 78
Q 1947 -72 1691 -72
Q 1231 -72 961 123
Q 691 319 691 763
z
" transform="scale(0.015625)"/>
        <path id="Cmr10-29" d="M 416 -1600
Q 359 -1600 359 -1544
Q 359 -1516 372 -1503
Q 1466 -434 1466 1600
Q 1466 3634 384 4691
Q 359 4706 359 4744
Q 359 4766 376 4783
Q 394 4800 416 4800
L 475 4800
Q 494 4800 506 4788
Q 966 4425 1272 3906
Q 1578 3388 1720 2800
Q 1863 2213 1863 1600
Q 1863 1147 1786 708
Q 1709 269 1542 -157
Q 1375 -584 1119 -945
Q 863 -1306 506 -1588
Q 494 -1600 475 -1600
L 416 -1600
z
" transform="scale(0.015625)"/>
       </defs>
       <use xlink:href="#Cmr10-6b"/>
       <use xlink:href="#Cmr10-65" x="52.685547"/>
       <use xlink:href="#Cmr10-70" x="97.070312"/>
       <use xlink:href="#Cmr10-74" x="152.587891"/>
       <use xlink:href="#Cmr10-20" x="191.40625"/>
       <use xlink:href="#Cmr10-28" x="224.707031"/>
       <use xlink:href="#Cmr10-64" x="263.525391"/>
       <use xlink:href="#Cmr10-65" x="319.042969"/>
       <use xlink:href="#Cmr10-66" x="363.427734"/>
       <use xlink:href="#Cmr10-61" x="393.945312"/>
       <use xlink:href="#Cmr10-75" x="443.945312"/>
       <use xlink:href="#Cmr10-6c" x="499.462891"/>
       <use xlink:href="#Cmr10-74" x="527.148438"/>
       <use xlink:href="#Cmr10-29" x="565.966797"/>
      </g>
     </g>
    </g>
    <g id="xtick_3">
     <g id="line2d_5">
      <defs>
       <path id="m512124f742" d="M 0 0
L 0 -1.5
" style="stroke: #000000; stroke-width: 0.5"/>
      </defs>
      <g>
       <use xlink:href="#m512124f742" x="110.476193" y="268.08" style="stroke: #000000; stroke-width: 0.5"/>
      </g>
     </g>
     <g id="line2d_6">
      <defs>
       <path id="m4eb45c80f1" d="M 0 0
L 0 1.5
" style="stroke: #000000; stroke-width: 0.5"/>
      </defs>
      <g>
       <use xlink:href="#m4eb45c80f1" x="110.476193" y="18.6" style="stroke: #000000; stroke-width: 0.5"/>
      </g>
     </g>
    </g>
    <g id="xtick_4">
     <g id="line2d_7">
      <g>
       <use xlink:href="#m512124f742" x="138.658011" y="268.08" style="stroke: #000000; stroke-width: 0.5"/>
      </g>
     </g>
     <g id="line2d_8">
      <g>
       <use xlink:href="#m4eb45c80f1" x="138.658011" y="18.6" style="stroke: #000000; stroke-width: 0.5"/>
      </g>
     </g>
    </g>
    <g id="xtick_5">
     <g id="line2d_9">
      <g>
       <use xlink:href="#m512124f742" x="195.021648" y="268.08" style="stroke: #000000; stroke-width: 0.5"/>
      </g>
     </g>
     <g id="line2d_10">
      <g>
       <use xlink:href="#m4eb45c80f1" x="195.021648" y="18.6" style="stroke: #000000; stroke-width: 0.5"/>
      </g>
     </g>
    </g>
    <g id="xtick_6">
     <g id="line2d_11">
      <g>
       <use xlink:href="#m512124f742" x="223.203466" y="268.08" style="stroke: #000000; stroke-width: 0.5"/>
      </g>
     </g>
     <g id="line2d_12">
      <g>
       <use xlink:href="#m4eb45c80f1" x="223.203466" y="18.6" style="stroke: #000000; stroke-width: 0.5"/>
      </g>
     </g>
    </g>
    <g id="xtick_7">
     <g id="line2d_13">
      <g>
       <use xlink:href="#m512124f742" x="251.385284" y="268.08" style="stroke: #000000; stroke-width: 0.5"/>
      </g>
     </g>
     <g id="line2d_14">
      <g>
       <use xlink:href="#m4eb45c80f1" x="251.385284" y="18.6" style="stroke: #000000; stroke-width: 0.5"/>
      </g>
     </g>
    </g>
    <g id="xtick_8">
     <g id="line2d_15">
      <g>
       <use xlink:href="#m512124f742" x="279.567102" y="268.08" style="stroke: #000000; stroke-width: 0.5"/>
      </g>
     </g>
     <g id="line2d_16">
      <g>
       <use xlink:href="#m4eb45c80f1" x="279.567102" y="18.6" style="stroke: #000000; stroke-width: 0.5"/>
      </g>
     </g>
    </g>
    <g id="xtick_9">
     <g id="line2d_17">
      <g>
       <use xlink:href="#m512124f742" x="335.930739" y="268.08" style="stroke: #000000; stroke-width: 0.5"/>
      </g>
     </g>
     <g id="line2d_18">
      <g>
       <use xlink:href="#m4eb45c80f1" x="335.930739" y="18.6" style="stroke: #000000; stroke-width: 0.5"/>
      </g>
     </g>
    </g>
    <g id="xtick_10">
     <g id="line2d_19">
      <g>
       <use xlink:href="#m512124f742" x="364.112557" y="268.08" style="stroke: #000000; stroke-width: 0.5"/>
      </g>
     </g>
     <g id="line2d_20">
      <g>
       <use xlink:href="#m4eb45c80f1" x="364.112557" y="18.6" style="stroke: #000000; stroke-width: 0.5"/>
      </g>
     </g>
    </g>
   </g>
   <g id="matplotlib.axis_2">
    <g id="ytick_1">
     <g id="line2d_21">
      <defs>
       <path id="mbb1d823302" d="M 0 0
L 3 0
" style="stroke: #000000; stroke-width: 0.5"/>
      </defs>
      <g>
       <use xlink:href="#mbb1d823302" x="97.794375" y="268.08" style="stroke: #000000; stroke-width: 0.5"/>
      </g>
     </g>
     <g id="line2d_22">
      <defs>
       <path id="m629588afb9" d="M 0 0
L -3 0
" style="stroke: #000000; stroke-width: 0.5"/>
      </defs>
      <g>
       <use xlink:href="#m629588afb9" x="376.794375" y="268.08" style="stroke: #000000; stroke-width: 0.5"/>
      </g>
     </g>
     <g id="text_3">
      <!-- $\mathdefault{0.000}$ -->
      <g transform="translate(71.494375 271.549531) scale(0.1 -0.1)">
       <defs>
        <path id="Cmr10-30" d="M 1600 -141
Q 816 -141 533 504
Q 250 1150 250 2041
Q 250 2597 351 3087
Q 453 3578 754 3920
Q 1056 4263 1600 4263
Q 2022 4263 2290 4056
Q 2559 3850 2700 3523
Q 2841 3197 2892 2823
Q 2944 2450 2944 2041
Q 2944 1491 2842 1011
Q 2741 531 2444 195
Q 2147 -141 1600 -141
z
M 1600 25
Q 1956 25 2131 390
Q 2306 756 2347 1200
Q 2388 1644 2388 2144
Q 2388 2625 2347 3031
Q 2306 3438 2132 3767
Q 1959 4097 1600 4097
Q 1238 4097 1063 3765
Q 888 3434 847 3029
Q 806 2625 806 2144
Q 806 1788 823 1472
Q 841 1156 916 820
Q 991 484 1158 254
Q 1325 25 1600 25
z
" transform="scale(0.015625)"/>
        <path id="Cmr10-2e" d="M 538 353
Q 538 497 644 600
Q 750 703 891 703
Q 978 703 1062 656
Q 1147 609 1194 525
Q 1241 441 1241 353
Q 1241 213 1137 106
Q 1034 0 891 0
Q 750 0 644 106
Q 538 213 538 353
z
" transform="scale(0.015625)"/>
       </defs>
       <use xlink:href="#Cmr10-30" transform="translate(0 0.390625)"/>
       <use xlink:href="#Cmr10-2e" transform="translate(50 0.390625)"/>
       <use xlink:href="#Cmr10-30" transform="translate(77.685547 0.390625)"/>
       <use xlink:href="#Cmr10-30" transform="translate(127.685547 0.390625)"/>
       <use xlink:href="#Cmr10-30" transform="translate(177.685547 0.390625)"/>
      </g>
     </g>
    </g>
    <g id="ytick_2">
     <g id="line2d_23">
      <g>
       <use xlink:href="#mbb1d823302" x="97.794375" y="236.301406" style="stroke: #000000; stroke-width: 0.5"/>
      </g>
     </g>
     <g id="line2d_24">
      <g>
       <use xlink:href="#m629588afb9" x="376.794375" y="236.301406" style="stroke: #000000; stroke-width: 0.5"/>
      </g>
     </g>
     <g id="text_4">
      <!-- $\mathdefault{0.025}$ -->
      <g transform="translate(71.494375 239.770937) scale(0.1 -0.1)">
       <defs>
        <path id="Cmr10-32" d="M 319 0
L 319 172
Q 319 188 331 206
L 1325 1306
Q 1550 1550 1690 1715
Q 1831 1881 1968 2097
Q 2106 2313 2186 2536
Q 2266 2759 2266 3009
Q 2266 3272 2169 3511
Q 2072 3750 1880 3894
Q 1688 4038 1416 4038
Q 1138 4038 916 3870
Q 694 3703 603 3438
Q 628 3444 672 3444
Q 816 3444 917 3347
Q 1019 3250 1019 3097
Q 1019 2950 917 2848
Q 816 2747 672 2747
Q 522 2747 420 2851
Q 319 2956 319 3097
Q 319 3338 409 3548
Q 500 3759 670 3923
Q 841 4088 1055 4175
Q 1269 4263 1509 4263
Q 1875 4263 2190 4108
Q 2506 3953 2690 3670
Q 2875 3388 2875 3009
Q 2875 2731 2753 2481
Q 2631 2231 2440 2026
Q 2250 1822 1953 1562
Q 1656 1303 1563 1216
L 838 519
L 1453 519
Q 1906 519 2211 526
Q 2516 534 2534 550
Q 2609 631 2688 1141
L 2875 1141
L 2694 0
L 319 0
z
" transform="scale(0.015625)"/>
        <path id="Cmr10-35" d="M 556 728
Q 622 541 758 387
Q 894 234 1080 148
Q 1266 63 1466 63
Q 1928 63 2103 422
Q 2278 781 2278 1294
Q 2278 1516 2270 1667
Q 2263 1819 2228 1959
Q 2169 2184 2020 2353
Q 1872 2522 1656 2522
Q 1441 2522 1286 2456
Q 1131 2391 1034 2303
Q 938 2216 863 2119
Q 788 2022 769 2016
L 697 2016
Q 681 2016 657 2036
Q 634 2056 634 2075
L 634 4213
Q 634 4228 654 4245
Q 675 4263 697 4263
L 716 4263
Q 1147 4056 1631 4056
Q 2106 4056 2547 4263
L 2566 4263
Q 2588 4263 2606 4247
Q 2625 4231 2625 4213
L 2625 4153
Q 2625 4122 2613 4122
Q 2394 3831 2064 3668
Q 1734 3506 1381 3506
Q 1125 3506 856 3578
L 856 2369
Q 1069 2541 1236 2614
Q 1403 2688 1663 2688
Q 2016 2688 2295 2484
Q 2575 2281 2725 1954
Q 2875 1628 2875 1288
Q 2875 903 2686 575
Q 2497 247 2172 53
Q 1847 -141 1466 -141
Q 1150 -141 886 21
Q 622 184 470 459
Q 319 734 319 1044
Q 319 1188 412 1278
Q 506 1369 647 1369
Q 788 1369 883 1276
Q 978 1184 978 1044
Q 978 906 883 811
Q 788 716 647 716
Q 625 716 597 720
Q 569 725 556 728
z
" transform="scale(0.015625)"/>
       </defs>
       <use xlink:href="#Cmr10-30" transform="translate(0 0.390625)"/>
       <use xlink:href="#Cmr10-2e" transform="translate(50 0.390625)"/>
       <use xlink:href="#Cmr10-30" transform="translate(77.685547 0.390625)"/>
       <use xlink:href="#Cmr10-32" transform="translate(127.685547 0.390625)"/>
       <use xlink:href="#Cmr10-35" transform="translate(177.685547 0.390625)"/>
      </g>
     </g>
    </g>
    <g id="ytick_3">
     <g id="line2d_25">
      <g>
       <use xlink:href="#mbb1d823302" x="97.794375" y="204.522812" style="stroke: #000000; stroke-width: 0.5"/>
      </g>
     </g>
     <g id="line2d_26">
      <g>
       <use xlink:href="#m629588afb9" x="376.794375" y="204.522812" style="stroke: #000000; stroke-width: 0.5"/>
      </g>
     </g>
     <g id="text_5">
      <!-- $\mathdefault{0.050}$ -->
      <g transform="translate(71.494375 207.992344) scale(0.1 -0.1)">
       <use xlink:href="#Cmr10-30" transform="translate(0 0.390625)"/>
       <use xlink:href="#Cmr10-2e" transform="translate(50 0.390625)"/>
       <use xlink:href="#Cmr10-30" transform="translate(77.685547 0.390625)"/>
       <use xlink:href="#Cmr10-35" transform="translate(127.685547 0.390625)"/>
       <use xlink:href="#Cmr10-30" transform="translate(177.685547 0.390625)"/>
      </g>
     </g>
    </g>
    <g id="ytick_4">
     <g id="line2d_27">
      <g>
       <use xlink:href="#mbb1d823302" x="97.794375" y="172.744219" style="stroke: #000000; stroke-width: 0.5"/>
      </g>
     </g>
     <g id="line2d_28">
      <g>
       <use xlink:href="#m629588afb9" x="376.794375" y="172.744219" style="stroke: #000000; stroke-width: 0.5"/>
      </g>
     </g>
     <g id="text_6">
      <!-- $\mathdefault{0.075}$ -->
      <g transform="translate(71.494375 176.21375) scale(0.1 -0.1)">
       <defs>
        <path id="Cmr10-37" d="M 1113 166
Q 1113 522 1175 862
Q 1238 1203 1358 1536
Q 1478 1869 1648 2189
Q 1819 2509 2022 2791
L 2606 3603
L 1875 3603
Q 738 3603 703 3572
Q 619 3469 544 2981
L 359 2981
L 569 4325
L 756 4325
L 756 4306
Q 756 4191 1147 4156
Q 1538 4122 1913 4122
L 3103 4122
L 3103 3956
Q 3103 3950 3101 3947
Q 3100 3944 3097 3938
L 2216 2700
Q 1891 2219 1809 1631
Q 1728 1044 1728 166
Q 1728 41 1637 -50
Q 1547 -141 1422 -141
Q 1294 -141 1203 -50
Q 1113 41 1113 166
z
" transform="scale(0.015625)"/>
       </defs>
       <use xlink:href="#Cmr10-30" transform="translate(0 0.421875)"/>
       <use xlink:href="#Cmr10-2e" transform="translate(50 0.421875)"/>
       <use xlink:href="#Cmr10-30" transform="translate(77.685547 0.421875)"/>
       <use xlink:href="#Cmr10-37" transform="translate(127.685547 0.421875)"/>
       <use xlink:href="#Cmr10-35" transform="translate(177.685547 0.421875)"/>
      </g>
     </g>
    </g>
    <g id="ytick_5">
     <g id="line2d_29">
      <g>
       <use xlink:href="#mbb1d823302" x="97.794375" y="140.965625" style="stroke: #000000; stroke-width: 0.5"/>
      </g>
     </g>
     <g id="line2d_30">
      <g>
       <use xlink:href="#m629588afb9" x="376.794375" y="140.965625" style="stroke: #000000; stroke-width: 0.5"/>
      </g>
     </g>
     <g id="text_7">
      <!-- $\mathdefault{0.100}$ -->
      <g transform="translate(71.494375 144.435156) scale(0.1 -0.1)">
       <defs>
        <path id="Cmr10-31" d="M 594 0
L 594 225
Q 1394 225 1394 428
L 1394 3788
Q 1063 3628 556 3628
L 556 3853
Q 1341 3853 1741 4263
L 1831 4263
Q 1853 4263 1873 4245
Q 1894 4228 1894 4206
L 1894 428
Q 1894 225 2694 225
L 2694 0
L 594 0
z
" transform="scale(0.015625)"/>
       </defs>
       <use xlink:href="#Cmr10-30" transform="translate(0 0.390625)"/>
       <use xlink:href="#Cmr10-2e" transform="translate(50 0.390625)"/>
       <use xlink:href="#Cmr10-31" transform="translate(77.685547 0.390625)"/>
       <use xlink:href="#Cmr10-30" transform="translate(127.685547 0.390625)"/>
       <use xlink:href="#Cmr10-30" transform="translate(177.685547 0.390625)"/>
      </g>
     </g>
    </g>
    <g id="ytick_6">
     <g id="line2d_31">
      <g>
       <use xlink:href="#mbb1d823302" x="97.794375" y="109.187031" style="stroke: #000000; stroke-width: 0.5"/>
      </g>
     </g>
     <g id="line2d_32">
      <g>
       <use xlink:href="#m629588afb9" x="376.794375" y="109.187031" style="stroke: #000000; stroke-width: 0.5"/>
      </g>
     </g>
     <g id="text_8">
      <!-- $\mathdefault{0.125}$ -->
      <g transform="translate(71.494375 112.656562) scale(0.1 -0.1)">
       <use xlink:href="#Cmr10-30" transform="translate(0 0.390625)"/>
       <use xlink:href="#Cmr10-2e" transform="translate(50 0.390625)"/>
       <use xlink:href="#Cmr10-31" transform="translate(77.685547 0.390625)"/>
       <use xlink:href="#Cmr10-32" transform="translate(127.685547 0.390625)"/>
       <use xlink:href="#Cmr10-35" transform="translate(177.685547 0.390625)"/>
      </g>
     </g>
    </g>
    <g id="ytick_7">
     <g id="line2d_33">
      <g>
       <use xlink:href="#mbb1d823302" x="97.794375" y="77.408437" style="stroke: #000000; stroke-width: 0.5"/>
      </g>
     </g>
     <g id="line2d_34">
      <g>
       <use xlink:href="#m629588afb9" x="376.794375" y="77.408437" style="stroke: #000000; stroke-width: 0.5"/>
      </g>
     </g>
     <g id="text_9">
      <!-- $\mathdefault{0.150}$ -->
      <g transform="translate(71.494375 80.877968) scale(0.1 -0.1)">
       <use xlink:href="#Cmr10-30" transform="translate(0 0.390625)"/>
       <use xlink:href="#Cmr10-2e" transform="translate(50 0.390625)"/>
       <use xlink:href="#Cmr10-31" transform="translate(77.685547 0.390625)"/>
       <use xlink:href="#Cmr10-35" transform="translate(127.685547 0.390625)"/>
       <use xlink:href="#Cmr10-30" transform="translate(177.685547 0.390625)"/>
      </g>
     </g>
    </g>
    <g id="ytick_8">
     <g id="line2d_35">
      <g>
       <use xlink:href="#mbb1d823302" x="97.794375" y="45.629843" style="stroke: #000000; stroke-width: 0.5"/>
      </g>
     </g>
     <g id="line2d_36">
      <g>
       <use xlink:href="#m629588afb9" x="376.794375" y="45.629843" style="stroke: #000000; stroke-width: 0.5"/>
      </g>
     </g>
     <g id="text_10">
      <!-- $\mathdefault{0.175}$ -->
      <g transform="translate(71.494375 49.099375) scale(0.1 -0.1)">
       <use xlink:href="#Cmr10-30" transform="translate(0 0.421875)"/>
       <use xlink:href="#Cmr10-2e" transform="translate(50 0.421875)"/>
       <use xlink:href="#Cmr10-31" transform="translate(77.685547 0.421875)"/>
       <use xlink:href="#Cmr10-37" transform="translate(127.685547 0.421875)"/>
       <use xlink:href="#Cmr10-35" transform="translate(177.685547 0.421875)"/>
      </g>
     </g>
    </g>
    <g id="ytick_9">
     <g id="line2d_37">
      <defs>
       <path id="m5033775c1d" d="M 0 0
L 1.5 0
" style="stroke: #000000; stroke-width: 0.5"/>
      </defs>
      <g>
       <use xlink:href="#m5033775c1d" x="97.794375" y="261.724281" style="stroke: #000000; stroke-width: 0.5"/>
      </g>
     </g>
     <g id="line2d_38">
      <defs>
       <path id="md416a1d2dc" d="M 0 0
L -1.5 0
" style="stroke: #000000; stroke-width: 0.5"/>
      </defs>
      <g>
       <use xlink:href="#md416a1d2dc" x="376.794375" y="261.724281" style="stroke: #000000; stroke-width: 0.5"/>
      </g>
     </g>
    </g>
    <g id="ytick_10">
     <g id="line2d_39">
      <g>
       <use xlink:href="#m5033775c1d" x="97.794375" y="255.368562" style="stroke: #000000; stroke-width: 0.5"/>
      </g>
     </g>
     <g id="line2d_40">
      <g>
       <use xlink:href="#md416a1d2dc" x="376.794375" y="255.368562" style="stroke: #000000; stroke-width: 0.5"/>
      </g>
     </g>
    </g>
    <g id="ytick_11">
     <g id="line2d_41">
      <g>
       <use xlink:href="#m5033775c1d" x="97.794375" y="249.012844" style="stroke: #000000; stroke-width: 0.5"/>
      </g>
     </g>
     <g id="line2d_42">
      <g>
       <use xlink:href="#md416a1d2dc" x="376.794375" y="249.012844" style="stroke: #000000; stroke-width: 0.5"/>
      </g>
     </g>
    </g>
    <g id="ytick_12">
     <g id="line2d_43">
      <g>
       <use xlink:href="#m5033775c1d" x="97.794375" y="242.657125" style="stroke: #000000; stroke-width: 0.5"/>
      </g>
     </g>
     <g id="line2d_44">
      <g>
       <use xlink:href="#md416a1d2dc" x="376.794375" y="242.657125" style="stroke: #000000; stroke-width: 0.5"/>
      </g>
     </g>
    </g>
    <g id="ytick_13">
     <g id="line2d_45">
      <g>
       <use xlink:href="#m5033775c1d" x="97.794375" y="229.945687" style="stroke: #000000; stroke-width: 0.5"/>
      </g>
     </g>
     <g id="line2d_46">
      <g>
       <use xlink:href="#md416a1d2dc" x="376.794375" y="229.945687" style="stroke: #000000; stroke-width: 0.5"/>
      </g>
     </g>
    </g>
    <g id="ytick_14">
     <g id="line2d_47">
      <g>
       <use xlink:href="#m5033775c1d" x="97.794375" y="223.589969" style="stroke: #000000; stroke-width: 0.5"/>
      </g>
     </g>
     <g id="line2d_48">
      <g>
       <use xlink:href="#md416a1d2dc" x="376.794375" y="223.589969" style="stroke: #000000; stroke-width: 0.5"/>
      </g>
     </g>
    </g>
    <g id="ytick_15">
     <g id="line2d_49">
      <g>
       <use xlink:href="#m5033775c1d" x="97.794375" y="217.23425" style="stroke: #000000; stroke-width: 0.5"/>
      </g>
     </g>
     <g id="line2d_50">
      <g>
       <use xlink:href="#md416a1d2dc" x="376.794375" y="217.23425" style="stroke: #000000; stroke-width: 0.5"/>
      </g>
     </g>
    </g>
    <g id="ytick_16">
     <g id="line2d_51">
      <g>
       <use xlink:href="#m5033775c1d" x="97.794375" y="210.878531" style="stroke: #000000; stroke-width: 0.5"/>
      </g>
     </g>
     <g id="line2d_52">
      <g>
       <use xlink:href="#md416a1d2dc" x="376.794375" y="210.878531" style="stroke: #000000; stroke-width: 0.5"/>
      </g>
     </g>
    </g>
    <g id="ytick_17">
     <g id="line2d_53">
      <g>
       <use xlink:href="#m5033775c1d" x="97.794375" y="198.167094" style="stroke: #000000; stroke-width: 0.5"/>
      </g>
     </g>
     <g id="line2d_54">
      <g>
       <use xlink:href="#md416a1d2dc" x="376.794375" y="198.167094" style="stroke: #000000; stroke-width: 0.5"/>
      </g>
     </g>
    </g>
    <g id="ytick_18">
     <g id="line2d_55">
      <g>
       <use xlink:href="#m5033775c1d" x="97.794375" y="191.811375" style="stroke: #000000; stroke-width: 0.5"/>
      </g>
     </g>
     <g id="line2d_56">
      <g>
       <use xlink:href="#md416a1d2dc" x="376.794375" y="191.811375" style="stroke: #000000; stroke-width: 0.5"/>
      </g>
     </g>
    </g>
    <g id="ytick_19">
     <g id="line2d_57">
      <g>
       <use xlink:href="#m5033775c1d" x="97.794375" y="185.455656" style="stroke: #000000; stroke-width: 0.5"/>
      </g>
     </g>
     <g id="line2d_58">
      <g>
       <use xlink:href="#md416a1d2dc" x="376.794375" y="185.455656" style="stroke: #000000; stroke-width: 0.5"/>
      </g>
     </g>
    </g>
    <g id="ytick_20">
     <g id="line2d_59">
      <g>
       <use xlink:href="#m5033775c1d" x="97.794375" y="179.099937" style="stroke: #000000; stroke-width: 0.5"/>
      </g>
     </g>
     <g id="line2d_60">
      <g>
       <use xlink:href="#md416a1d2dc" x="376.794375" y="179.099937" style="stroke: #000000; stroke-width: 0.5"/>
      </g>
     </g>
    </g>
    <g id="ytick_21">
     <g id="line2d_61">
      <g>
       <use xlink:href="#m5033775c1d" x="97.794375" y="166.3885" style="stroke: #000000; stroke-width: 0.5"/>
      </g>
     </g>
     <g id="line2d_62">
      <g>
       <use xlink:href="#md416a1d2dc" x="376.794375" y="166.3885" style="stroke: #000000; stroke-width: 0.5"/>
      </g>
     </g>
    </g>
    <g id="ytick_22">
     <g id="line2d_63">
      <g>
       <use xlink:href="#m5033775c1d" x="97.794375" y="160.032781" style="stroke: #000000; stroke-width: 0.5"/>
      </g>
     </g>
     <g id="line2d_64">
      <g>
       <use xlink:href="#md416a1d2dc" x="376.794375" y="160.032781" style="stroke: #000000; stroke-width: 0.5"/>
      </g>
     </g>
    </g>
    <g id="ytick_23">
     <g id="line2d_65">
      <g>
       <use xlink:href="#m5033775c1d" x="97.794375" y="153.677062" style="stroke: #000000; stroke-width: 0.5"/>
      </g>
     </g>
     <g id="line2d_66">
      <g>
       <use xlink:href="#md416a1d2dc" x="376.794375" y="153.677062" style="stroke: #000000; stroke-width: 0.5"/>
      </g>
     </g>
    </g>
    <g id="ytick_24">
     <g id="line2d_67">
      <g>
       <use xlink:href="#m5033775c1d" x="97.794375" y="147.321344" style="stroke: #000000; stroke-width: 0.5"/>
      </g>
     </g>
     <g id="line2d_68">
      <g>
       <use xlink:href="#md416a1d2dc" x="376.794375" y="147.321344" style="stroke: #000000; stroke-width: 0.5"/>
      </g>
     </g>
    </g>
    <g id="ytick_25">
     <g id="line2d_69">
      <g>
       <use xlink:href="#m5033775c1d" x="97.794375" y="134.609906" style="stroke: #000000; stroke-width: 0.5"/>
      </g>
     </g>
     <g id="line2d_70">
      <g>
       <use xlink:href="#md416a1d2dc" x="376.794375" y="134.609906" style="stroke: #000000; stroke-width: 0.5"/>
      </g>
     </g>
    </g>
    <g id="ytick_26">
     <g id="line2d_71">
      <g>
       <use xlink:href="#m5033775c1d" x="97.794375" y="128.254187" style="stroke: #000000; stroke-width: 0.5"/>
      </g>
     </g>
     <g id="line2d_72">
      <g>
       <use xlink:href="#md416a1d2dc" x="376.794375" y="128.254187" style="stroke: #000000; stroke-width: 0.5"/>
      </g>
     </g>
    </g>
    <g id="ytick_27">
     <g id="line2d_73">
      <g>
       <use xlink:href="#m5033775c1d" x="97.794375" y="121.898469" style="stroke: #000000; stroke-width: 0.5"/>
      </g>
     </g>
     <g id="line2d_74">
      <g>
       <use xlink:href="#md416a1d2dc" x="376.794375" y="121.898469" style="stroke: #000000; stroke-width: 0.5"/>
      </g>
     </g>
    </g>
    <g id="ytick_28">
     <g id="line2d_75">
      <g>
       <use xlink:href="#m5033775c1d" x="97.794375" y="115.54275" style="stroke: #000000; stroke-width: 0.5"/>
      </g>
     </g>
     <g id="line2d_76">
      <g>
       <use xlink:href="#md416a1d2dc" x="376.794375" y="115.54275" style="stroke: #000000; stroke-width: 0.5"/>
      </g>
     </g>
    </g>
    <g id="ytick_29">
     <g id="line2d_77">
      <g>
       <use xlink:href="#m5033775c1d" x="97.794375" y="102.831312" style="stroke: #000000; stroke-width: 0.5"/>
      </g>
     </g>
     <g id="line2d_78">
      <g>
       <use xlink:href="#md416a1d2dc" x="376.794375" y="102.831312" style="stroke: #000000; stroke-width: 0.5"/>
      </g>
     </g>
    </g>
    <g id="ytick_30">
     <g id="line2d_79">
      <g>
       <use xlink:href="#m5033775c1d" x="97.794375" y="96.475593" style="stroke: #000000; stroke-width: 0.5"/>
      </g>
     </g>
     <g id="line2d_80">
      <g>
       <use xlink:href="#md416a1d2dc" x="376.794375" y="96.475593" style="stroke: #000000; stroke-width: 0.5"/>
      </g>
     </g>
    </g>
    <g id="ytick_31">
     <g id="line2d_81">
      <g>
       <use xlink:href="#m5033775c1d" x="97.794375" y="90.119875" style="stroke: #000000; stroke-width: 0.5"/>
      </g>
     </g>
     <g id="line2d_82">
      <g>
       <use xlink:href="#md416a1d2dc" x="376.794375" y="90.119875" style="stroke: #000000; stroke-width: 0.5"/>
      </g>
     </g>
    </g>
    <g id="ytick_32">
     <g id="line2d_83">
      <g>
       <use xlink:href="#m5033775c1d" x="97.794375" y="83.764156" style="stroke: #000000; stroke-width: 0.5"/>
      </g>
     </g>
     <g id="line2d_84">
      <g>
       <use xlink:href="#md416a1d2dc" x="376.794375" y="83.764156" style="stroke: #000000; stroke-width: 0.5"/>
      </g>
     </g>
    </g>
    <g id="ytick_33">
     <g id="line2d_85">
      <g>
       <use xlink:href="#m5033775c1d" x="97.794375" y="71.052718" style="stroke: #000000; stroke-width: 0.5"/>
      </g>
     </g>
     <g id="line2d_86">
      <g>
       <use xlink:href="#md416a1d2dc" x="376.794375" y="71.052718" style="stroke: #000000; stroke-width: 0.5"/>
      </g>
     </g>
    </g>
    <g id="ytick_34">
     <g id="line2d_87">
      <g>
       <use xlink:href="#m5033775c1d" x="97.794375" y="64.697" style="stroke: #000000; stroke-width: 0.5"/>
      </g>
     </g>
     <g id="line2d_88">
      <g>
       <use xlink:href="#md416a1d2dc" x="376.794375" y="64.697" style="stroke: #000000; stroke-width: 0.5"/>
      </g>
     </g>
    </g>
    <g id="ytick_35">
     <g id="line2d_89">
      <g>
       <use xlink:href="#m5033775c1d" x="97.794375" y="58.341281" style="stroke: #000000; stroke-width: 0.5"/>
      </g>
     </g>
     <g id="line2d_90">
      <g>
       <use xlink:href="#md416a1d2dc" x="376.794375" y="58.341281" style="stroke: #000000; stroke-width: 0.5"/>
      </g>
     </g>
    </g>
    <g id="ytick_36">
     <g id="line2d_91">
      <g>
       <use xlink:href="#m5033775c1d" x="97.794375" y="51.985562" style="stroke: #000000; stroke-width: 0.5"/>
      </g>
     </g>
     <g id="line2d_92">
      <g>
       <use xlink:href="#md416a1d2dc" x="376.794375" y="51.985562" style="stroke: #000000; stroke-width: 0.5"/>
      </g>
     </g>
    </g>
    <g id="ytick_37">
     <g id="line2d_93">
      <g>
       <use xlink:href="#m5033775c1d" x="97.794375" y="39.274125" style="stroke: #000000; stroke-width: 0.5"/>
      </g>
     </g>
     <g id="line2d_94">
      <g>
       <use xlink:href="#md416a1d2dc" x="376.794375" y="39.274125" style="stroke: #000000; stroke-width: 0.5"/>
      </g>
     </g>
    </g>
    <g id="ytick_38">
     <g id="line2d_95">
      <g>
       <use xlink:href="#m5033775c1d" x="97.794375" y="32.918406" style="stroke: #000000; stroke-width: 0.5"/>
      </g>
     </g>
     <g id="line2d_96">
      <g>
       <use xlink:href="#md416a1d2dc" x="376.794375" y="32.918406" style="stroke: #000000; stroke-width: 0.5"/>
      </g>
     </g>
    </g>
    <g id="ytick_39">
     <g id="line2d_97">
      <g>
       <use xlink:href="#m5033775c1d" x="97.794375" y="26.562687" style="stroke: #000000; stroke-width: 0.5"/>
      </g>
     </g>
     <g id="line2d_98">
      <g>
       <use xlink:href="#md416a1d2dc" x="376.794375" y="26.562687" style="stroke: #000000; stroke-width: 0.5"/>
      </g>
     </g>
    </g>
    <g id="ytick_40">
     <g id="line2d_99">
      <g>
       <use xlink:href="#m5033775c1d" x="97.794375" y="20.206968" style="stroke: #000000; stroke-width: 0.5"/>
      </g>
     </g>
     <g id="line2d_100">
      <g>
       <use xlink:href="#md416a1d2dc" x="376.794375" y="20.206968" style="stroke: #000000; stroke-width: 0.5"/>
      </g>
     </g>
    </g>
    <g id="text_11">
     <!-- Normalized flux RMS -->
     <g transform="translate(65.555312 190.879062) rotate(-90) scale(0.1 -0.1)">
      <defs>
       <path id="Cmr10-4e" d="M 197 0
L 197 225
Q 856 225 856 603
L 856 4109
Q 647 4147 197 4147
L 197 4372
L 1422 4372
Q 1453 4372 1466 4347
L 3731 1013
L 3731 3769
Q 3731 4147 3072 4147
L 3072 4372
L 4594 4372
L 4594 4147
Q 3938 4147 3938 3769
L 3938 56
Q 3938 38 3913 19
Q 3888 0 3872 0
L 3794 0
Q 3763 0 3750 25
L 1063 3981
L 1063 603
Q 1063 225 1722 225
L 1722 0
L 197 0
z
" transform="scale(0.015625)"/>
       <path id="Cmr10-6f" d="M 1600 -72
Q 1216 -72 887 123
Q 559 319 368 647
Q 178 975 178 1363
Q 178 1656 283 1928
Q 388 2200 583 2414
Q 778 2628 1037 2748
Q 1297 2869 1600 2869
Q 1994 2869 2317 2661
Q 2641 2453 2828 2104
Q 3016 1756 3016 1363
Q 3016 978 2825 648
Q 2634 319 2307 123
Q 1981 -72 1600 -72
z
M 1600 116
Q 2113 116 2284 487
Q 2456 859 2456 1434
Q 2456 1756 2422 1967
Q 2388 2178 2272 2350
Q 2200 2456 2089 2536
Q 1978 2616 1854 2658
Q 1731 2700 1600 2700
Q 1400 2700 1220 2609
Q 1041 2519 922 2350
Q 803 2169 770 1951
Q 738 1734 738 1434
Q 738 1075 800 789
Q 863 503 1052 309
Q 1241 116 1600 116
z
" transform="scale(0.015625)"/>
       <path id="Cmr10-72" d="M 166 0
L 166 225
Q 384 225 525 259
Q 666 294 666 428
L 666 2175
Q 666 2347 614 2423
Q 563 2500 466 2517
Q 369 2534 166 2534
L 166 2759
L 1081 2828
L 1081 2203
Q 1184 2481 1375 2654
Q 1566 2828 1838 2828
Q 2028 2828 2178 2715
Q 2328 2603 2328 2419
Q 2328 2303 2245 2217
Q 2163 2131 2041 2131
Q 1922 2131 1837 2215
Q 1753 2300 1753 2419
Q 1753 2591 1875 2663
L 1838 2663
Q 1578 2663 1414 2475
Q 1250 2288 1181 2009
Q 1113 1731 1113 1478
L 1113 428
Q 1113 225 1734 225
L 1734 0
L 166 0
z
" transform="scale(0.015625)"/>
       <path id="Cmr10-6d" d="M 191 0
L 191 225
Q 409 225 550 259
Q 691 294 691 428
L 691 2175
Q 691 2347 639 2423
Q 588 2500 491 2517
Q 394 2534 191 2534
L 191 2759
L 1119 2828
L 1119 2203
Q 1247 2478 1498 2653
Q 1750 2828 2047 2828
Q 2784 2828 2913 2228
Q 3041 2497 3287 2662
Q 3534 2828 3828 2828
Q 4119 2828 4317 2734
Q 4516 2641 4616 2448
Q 4716 2256 4716 1966
L 4716 428
Q 4716 294 4858 259
Q 5000 225 5216 225
L 5216 0
L 3750 0
L 3750 225
Q 3969 225 4109 259
Q 4250 294 4250 428
L 4250 1947
Q 4250 2269 4159 2466
Q 4069 2663 3788 2663
Q 3419 2663 3178 2366
Q 2938 2069 2938 1691
L 2938 428
Q 2938 294 3078 259
Q 3219 225 3438 225
L 3438 0
L 1972 0
L 1972 225
Q 2191 225 2331 259
Q 2472 294 2472 428
L 2472 1947
Q 2472 2259 2381 2461
Q 2291 2663 2009 2663
Q 1638 2663 1398 2366
Q 1159 2069 1159 1691
L 1159 428
Q 1159 294 1300 259
Q 1441 225 1656 225
L 1656 0
L 191 0
z
" transform="scale(0.015625)"/>
       <path id="Cmr10-69" d="M 197 0
L 197 225
Q 416 225 556 259
Q 697 294 697 428
L 697 2175
Q 697 2422 601 2478
Q 506 2534 225 2534
L 225 2759
L 1147 2828
L 1147 428
Q 1147 294 1269 259
Q 1391 225 1594 225
L 1594 0
L 197 0
z
M 469 3928
Q 469 4069 575 4175
Q 681 4281 819 4281
Q 909 4281 993 4234
Q 1078 4188 1125 4103
Q 1172 4019 1172 3928
Q 1172 3791 1065 3684
Q 959 3578 819 3578
Q 681 3578 575 3684
Q 469 3791 469 3928
z
" transform="scale(0.015625)"/>
       <path id="Cmr10-7a" d="M 250 0
Q 178 0 178 72
L 178 122
Q 178 147 197 166
L 1984 2591
L 1409 2591
Q 1138 2591 961 2556
Q 784 2522 670 2426
Q 556 2331 504 2164
Q 453 1997 453 1703
L 269 1703
L 341 2759
L 2484 2759
Q 2513 2759 2533 2739
Q 2553 2719 2553 2688
L 2553 2650
Q 2553 2631 2541 2606
L 750 184
L 1363 184
Q 1641 184 1827 218
Q 2013 253 2144 384
Q 2266 506 2311 712
Q 2356 919 2381 1222
L 2566 1222
L 2456 0
L 250 0
z
" transform="scale(0.015625)"/>
       <path id="Cmr10-78" d="M 78 0
L 78 225
Q 322 225 537 320
Q 753 416 903 603
L 1484 1344
L 728 2328
Q 616 2469 483 2501
Q 350 2534 109 2534
L 109 2759
L 1441 2759
L 1441 2534
Q 1356 2534 1282 2496
Q 1209 2459 1209 2388
Q 1209 2363 1228 2328
L 1741 1663
L 2125 2156
Q 2203 2250 2203 2344
Q 2203 2422 2151 2478
Q 2100 2534 2016 2534
L 2016 2759
L 3194 2759
L 3194 2534
Q 2947 2534 2730 2439
Q 2513 2344 2363 2156
L 1856 1509
L 2675 428
Q 2797 288 2928 256
Q 3059 225 3303 225
L 3303 0
L 1972 0
L 1972 225
Q 2050 225 2122 262
Q 2194 300 2194 372
Q 2194 400 2175 428
L 1600 1191
L 1141 603
Q 1069 522 1069 416
Q 1069 338 1122 281
Q 1175 225 1247 225
L 1247 0
L 78 0
z
" transform="scale(0.015625)"/>
       <path id="Cmr10-52" d="M 213 0
L 213 225
Q 872 225 872 428
L 872 3944
Q 872 4147 213 4147
L 213 4372
L 2222 4372
Q 2581 4372 2976 4242
Q 3372 4113 3637 3847
Q 3903 3581 3903 3213
Q 3903 2944 3742 2733
Q 3581 2522 3329 2380
Q 3078 2238 2816 2175
Q 3103 2075 3318 1856
Q 3534 1638 3578 1356
L 3669 788
Q 3731 403 3800 214
Q 3869 25 4103 25
Q 4303 25 4401 211
Q 4500 397 4500 616
Q 4500 638 4520 655
Q 4541 672 4563 672
L 4622 672
Q 4684 672 4684 588
Q 4684 413 4615 245
Q 4547 78 4417 -31
Q 4288 -141 4109 -141
Q 3647 -141 3314 89
Q 2981 319 2981 763
L 2981 1331
Q 2981 1650 2759 1878
Q 2538 2106 2216 2106
L 1447 2106
L 1447 428
Q 1447 225 2106 225
L 2106 0
L 213 0
z
M 1447 2272
L 2131 2272
Q 2663 2272 2941 2486
Q 3219 2700 3219 3213
Q 3219 3722 2944 3934
Q 2669 4147 2131 4147
L 1772 4147
Q 1656 4147 1592 4137
Q 1528 4128 1487 4083
Q 1447 4038 1447 3944
L 1447 2272
z
" transform="scale(0.015625)"/>
       <path id="Cmr10-4d" d="M 225 0
L 225 225
Q 884 225 884 603
L 884 3944
Q 884 4147 225 4147
L 225 4372
L 1434 4372
Q 1513 4372 1538 4300
L 2931 678
L 4325 4300
Q 4350 4372 4428 4372
L 5638 4372
L 5638 4147
Q 4978 4147 4978 3944
L 4978 428
Q 4978 225 5638 225
L 5638 0
L 3775 0
L 3775 225
Q 4434 225 4434 428
L 4434 4153
L 2859 72
Q 2831 0 2753 0
Q 2672 0 2644 72
L 1088 4103
L 1088 603
Q 1088 225 1747 225
L 1747 0
L 225 0
z
" transform="scale(0.015625)"/>
       <path id="Cmr10-53" d="M 359 -91
L 359 1403
Q 359 1453 416 1453
L 494 1453
Q 513 1453 528 1437
Q 544 1422 544 1403
Q 544 775 933 429
Q 1322 84 1953 84
Q 2175 84 2362 212
Q 2550 341 2654 548
Q 2759 756 2759 978
Q 2759 1172 2681 1355
Q 2603 1538 2456 1672
Q 2309 1806 2125 1850
L 1294 2053
Q 881 2163 620 2502
Q 359 2841 359 3263
Q 359 3594 528 3884
Q 697 4175 983 4344
Q 1269 4513 1600 4513
Q 2241 4513 2619 4078
L 2881 4494
Q 2900 4513 2925 4513
L 2969 4513
Q 2988 4513 3005 4498
Q 3022 4484 3022 4459
L 3022 2975
Q 3022 2919 2969 2919
L 2894 2919
Q 2834 2919 2834 2975
Q 2834 3138 2779 3331
Q 2725 3525 2628 3703
Q 2531 3881 2419 3994
Q 2109 4306 1600 4306
Q 1381 4306 1197 4195
Q 1013 4084 903 3893
Q 794 3703 794 3494
Q 794 3219 964 2995
Q 1134 2772 1409 2700
L 2241 2497
Q 2447 2447 2630 2317
Q 2813 2188 2934 2016
Q 3056 1844 3125 1633
Q 3194 1422 3194 1197
Q 3194 850 3034 542
Q 2875 234 2586 46
Q 2297 -141 1953 -141
Q 1741 -141 1519 -94
Q 1297 -47 1109 50
Q 922 147 769 300
L 500 -122
Q 481 -141 453 -141
L 416 -141
Q 359 -141 359 -91
z
" transform="scale(0.015625)"/>
      </defs>
      <use xlink:href="#Cmr10-4e"/>
      <use xlink:href="#Cmr10-6f" x="75"/>
      <use xlink:href="#Cmr10-72" x="125"/>
      <use xlink:href="#Cmr10-6d" x="164.111328"/>
      <use xlink:href="#Cmr10-61" x="247.412109"/>
      <use xlink:href="#Cmr10-6c" x="297.412109"/>
      <use xlink:href="#Cmr10-69" x="325.097656"/>
      <use xlink:href="#Cmr10-7a" x="352.783203"/>
      <use xlink:href="#Cmr10-65" x="397.167969"/>
      <use xlink:href="#Cmr10-64" x="441.552734"/>
      <use xlink:href="#Cmr10-20" x="497.070312"/>
      <use xlink:href="#Cmr10-66" x="530.371094"/>
      <use xlink:href="#Cmr10-6c" x="560.888672"/>
      <use xlink:href="#Cmr10-75" x="588.574219"/>
      <use xlink:href="#Cmr10-78" x="644.091797"/>
      <use xlink:href="#Cmr10-20" x="696.777344"/>
      <use xlink:href="#Cmr10-52" x="730.078125"/>
      <use xlink:href="#Cmr10-4d" x="803.662109"/>
      <use xlink:href="#Cmr10-53" x="895.263672"/>
     </g>
    </g>
   </g>
   <g id="patch_5">
    <path d="M 97.794375 268.08
L 97.794375 18.6
" style="fill: none; stroke: #000000; stroke-width: 0.5; stroke-linejoin: miter; stroke-linecap: square"/>
   </g>
   <g id="patch_6">
    <path d="M 376.794375 268.08
L 376.794375 18.6
" style="fill: none; stroke: #000000; stroke-width: 0.5; stroke-linejoin: miter; stroke-linecap: square"/>
   </g>
   <g id="patch_7">
    <path d="M 97.794375 268.08
L 376.794375 268.08
" style="fill: none; stroke: #000000; stroke-width: 0.5; stroke-linejoin: miter; stroke-linecap: square"/>
   </g>
   <g id="patch_8">
    <path d="M 97.794375 18.6
L 376.794375 18.6
" style="fill: none; stroke: #000000; stroke-width: 0.5; stroke-linejoin: miter; stroke-linecap: square"/>
   </g>
   <g id="text_12">
    <!-- Flux scatter before/after masking - tess2021175071901-s0040-0000010002018424-0211-s_lc -->
    <g transform="translate(3.6 12.6) scale(0.12 -0.12)">
     <defs>
      <path id="Cmr10-46" d="M 197 0
L 197 225
Q 856 225 856 428
L 856 3944
Q 856 4147 197 4147
L 197 4372
L 3725 4372
L 3903 2906
L 3719 2906
Q 3675 3309 3601 3542
Q 3528 3775 3387 3908
Q 3247 4041 3011 4094
Q 2775 4147 2363 4147
L 1778 4147
Q 1663 4147 1598 4137
Q 1534 4128 1493 4083
Q 1453 4038 1453 3944
L 1453 2297
L 1906 2297
Q 2234 2297 2387 2355
Q 2541 2413 2598 2566
Q 2656 2719 2656 3047
L 2841 3047
L 2841 1325
L 2656 1325
Q 2656 1653 2598 1806
Q 2541 1959 2387 2017
Q 2234 2075 1906 2075
L 1453 2075
L 1453 428
Q 1453 225 2272 225
L 2272 0
L 197 0
z
" transform="scale(0.015625)"/>
      <path id="Cmr10-62" d="M 666 0
L 666 3788
Q 666 3959 614 4036
Q 563 4113 466 4130
Q 369 4147 166 4147
L 166 4372
L 1113 4441
L 1113 2438
Q 1219 2556 1361 2645
Q 1503 2734 1665 2781
Q 1828 2828 1997 2828
Q 2284 2828 2529 2712
Q 2775 2597 2956 2394
Q 3138 2191 3239 1927
Q 3341 1663 3341 1381
Q 3341 994 3152 659
Q 2963 325 2636 126
Q 2309 -72 1919 -72
Q 1675 -72 1447 53
Q 1219 178 1069 384
L 850 0
L 666 0
z
M 1131 628
Q 1238 394 1438 245
Q 1638 97 1881 97
Q 2213 97 2417 287
Q 2622 478 2703 768
Q 2784 1059 2784 1381
Q 2784 1922 2644 2203
Q 2581 2328 2473 2434
Q 2366 2541 2233 2602
Q 2100 2663 1953 2663
Q 1697 2663 1478 2527
Q 1259 2391 1131 2163
L 1131 628
z
" transform="scale(0.015625)"/>
      <path id="Cmr10-2f" d="M 359 -1472
Q 359 -1453 366 -1447
L 2591 4722
Q 2603 4759 2634 4779
Q 2666 4800 2706 4800
Q 2763 4800 2798 4765
Q 2834 4731 2834 4672
L 2834 4647
L 609 -1522
Q 572 -1600 488 -1600
Q 434 -1600 396 -1562
Q 359 -1525 359 -1472
z
" transform="scale(0.015625)"/>
      <path id="Cmr10-67" d="M 178 -500
Q 178 -272 343 -101
Q 509 69 738 141
Q 609 238 542 384
Q 475 531 475 697
Q 475 997 666 1228
Q 372 1516 372 1888
Q 372 2088 458 2263
Q 544 2438 697 2566
Q 850 2694 1037 2761
Q 1225 2828 1422 2828
Q 1803 2828 2106 2606
Q 2238 2747 2417 2823
Q 2597 2900 2791 2900
Q 2928 2900 3015 2801
Q 3103 2703 3103 2566
Q 3103 2488 3043 2428
Q 2984 2369 2906 2369
Q 2825 2369 2765 2428
Q 2706 2488 2706 2566
Q 2706 2684 2784 2731
Q 2453 2731 2216 2503
Q 2331 2388 2401 2220
Q 2472 2053 2472 1888
Q 2472 1616 2322 1398
Q 2172 1181 1926 1061
Q 1681 941 1422 941
Q 1072 941 781 1131
Q 691 1006 691 850
Q 691 681 802 554
Q 913 428 1081 428
L 1606 428
Q 1988 428 2294 359
Q 2600 291 2808 84
Q 3016 -122 3016 -500
Q 3016 -781 2778 -967
Q 2541 -1153 2211 -1236
Q 1881 -1319 1600 -1319
Q 1316 -1319 984 -1236
Q 653 -1153 415 -967
Q 178 -781 178 -500
z
M 538 -500
Q 538 -716 713 -861
Q 888 -1006 1134 -1076
Q 1381 -1147 1600 -1147
Q 1816 -1147 2062 -1076
Q 2309 -1006 2482 -861
Q 2656 -716 2656 -500
Q 2656 -166 2350 -67
Q 2044 31 1606 31
L 1081 31
Q 934 31 811 -39
Q 688 -109 613 -236
Q 538 -363 538 -500
z
M 1422 1113
Q 1966 1113 1966 1888
Q 1966 2222 1850 2439
Q 1734 2656 1422 2656
Q 1109 2656 993 2439
Q 878 2222 878 1888
Q 878 1675 922 1503
Q 966 1331 1084 1222
Q 1203 1113 1422 1113
z
" transform="scale(0.015625)"/>
      <path id="Cmr10-2d" d="M 72 1184
L 72 1581
L 1766 1581
L 1766 1184
L 72 1184
z
" transform="scale(0.015625)"/>
      <path id="Cmr10-39" d="M 722 269
Q 897 63 1331 63
Q 1575 63 1786 228
Q 1997 394 2113 634
Q 2247 906 2284 1214
Q 2322 1522 2322 1978
Q 2213 1719 2008 1553
Q 1803 1388 1538 1388
Q 1166 1388 873 1589
Q 581 1791 425 2120
Q 269 2450 269 2822
Q 269 3206 444 3539
Q 619 3872 928 4067
Q 1238 4263 1631 4263
Q 2019 4263 2280 4052
Q 2541 3841 2678 3508
Q 2816 3175 2870 2803
Q 2925 2431 2925 2069
Q 2925 1575 2744 1061
Q 2563 547 2202 203
Q 1841 -141 1331 -141
Q 953 -141 690 37
Q 428 216 428 575
Q 428 706 517 795
Q 606 884 738 884
Q 866 884 955 795
Q 1044 706 1044 575
Q 1044 450 953 359
Q 863 269 738 269
L 722 269
z
M 1563 1556
Q 1825 1556 1992 1732
Q 2159 1909 2234 2171
Q 2309 2434 2309 2694
L 2309 2816
L 2309 2841
Q 2309 3322 2168 3700
Q 2028 4078 1631 4078
Q 1378 4078 1220 3967
Q 1063 3856 988 3672
Q 913 3488 892 3278
Q 872 3069 872 2822
Q 872 2459 906 2203
Q 941 1947 1094 1751
Q 1247 1556 1563 1556
z
" transform="scale(0.015625)"/>
      <path id="Cmr10-34" d="M 178 1056
L 178 1281
L 2156 4231
Q 2178 4263 2222 4263
L 2316 4263
Q 2388 4263 2388 4191
L 2388 1281
L 3016 1281
L 3016 1056
L 2388 1056
L 2388 428
Q 2388 297 2575 261
Q 2763 225 3009 225
L 3009 0
L 1247 0
L 1247 225
Q 1494 225 1681 261
Q 1869 297 1869 428
L 1869 1056
L 178 1056
z
M 391 1281
L 1906 1281
L 1906 3547
L 391 1281
z
" transform="scale(0.015625)"/>
      <path id="Cmr10-38" d="M 269 972
Q 269 1356 522 1651
Q 775 1947 1172 2144
L 934 2297
Q 716 2441 578 2680
Q 441 2919 441 3181
Q 441 3488 602 3734
Q 763 3981 1030 4122
Q 1297 4263 1600 4263
Q 1884 4263 2148 4147
Q 2413 4031 2583 3815
Q 2753 3600 2753 3303
Q 2753 3088 2651 2903
Q 2550 2719 2373 2572
Q 2197 2425 1997 2322
L 2363 2088
Q 2616 1922 2770 1653
Q 2925 1384 2925 1088
Q 2925 741 2739 456
Q 2553 172 2247 15
Q 1941 -141 1600 -141
Q 1269 -141 961 -6
Q 653 128 461 383
Q 269 638 269 972
z
M 616 972
Q 616 719 755 509
Q 894 300 1122 181
Q 1350 63 1600 63
Q 1972 63 2275 280
Q 2578 497 2578 856
Q 2578 978 2529 1098
Q 2481 1219 2395 1317
Q 2309 1416 2203 1478
L 1344 2034
Q 1144 1928 976 1765
Q 809 1603 712 1400
Q 616 1197 616 972
z
M 1056 2925
L 1831 2425
Q 2100 2581 2272 2803
Q 2444 3025 2444 3303
Q 2444 3519 2323 3698
Q 2203 3878 2009 3978
Q 1816 4078 1594 4078
Q 1400 4078 1203 4003
Q 1006 3928 878 3779
Q 750 3631 750 3431
Q 750 3131 1056 2925
z
" transform="scale(0.015625)"/>
      <path id="Cmr10-5f" d="M 538 3928
Q 538 4069 644 4175
Q 750 4281 891 4281
Q 978 4281 1062 4234
Q 1147 4188 1194 4103
Q 1241 4019 1241 3928
Q 1241 3791 1137 3684
Q 1034 3578 891 3578
Q 750 3578 644 3684
Q 538 3791 538 3928
z
" transform="scale(0.015625)"/>
     </defs>
     <use xlink:href="#Cmr10-46"/>
     <use xlink:href="#Cmr10-6c" x="65.185547"/>
     <use xlink:href="#Cmr10-75" x="92.871094"/>
     <use xlink:href="#Cmr10-78" x="148.388672"/>
     <use xlink:href="#Cmr10-20" x="201.074219"/>
     <use xlink:href="#Cmr10-73" x="234.375"/>
     <use xlink:href="#Cmr10-63" x="273.779297"/>
     <use xlink:href="#Cmr10-61" x="318.164062"/>
     <use xlink:href="#Cmr10-74" x="368.164062"/>
     <use xlink:href="#Cmr10-74" x="406.982422"/>
     <use xlink:href="#Cmr10-65" x="445.800781"/>
     <use xlink:href="#Cmr10-72" x="490.185547"/>
     <use xlink:href="#Cmr10-20" x="529.296875"/>
     <use xlink:href="#Cmr10-62" x="562.597656"/>
     <use xlink:href="#Cmr10-65" x="618.115234"/>
     <use xlink:href="#Cmr10-66" x="662.5"/>
     <use xlink:href="#Cmr10-6f" x="693.017578"/>
     <use xlink:href="#Cmr10-72" x="743.017578"/>
     <use xlink:href="#Cmr10-65" x="782.128906"/>
     <use xlink:href="#Cmr10-2f" x="826.513672"/>
     <use xlink:href="#Cmr10-61" x="876.513672"/>
     <use xlink:href="#Cmr10-66" x="926.513672"/>
     <use xlink:href="#Cmr10-74" x="957.03125"/>
     <use xlink:href="#Cmr10-65" x="995.849609"/>
     <use xlink:href="#Cmr10-72" x="1040.234375"/>
     <use xlink:href="#Cmr10-20" x="1079.345703"/>
     <use xlink:href="#Cmr10-6d" x="1112.646484"/>
     <use xlink:href="#Cmr10-61" x="1195.947266"/>
     <use xlink:href="#Cmr10-73" x="1245.947266"/>
     <use xlink:href="#Cmr10-6b" x="1285.351562"/>
     <use xlink:href="#Cmr10-69" x="1338.037109"/>
     <use xlink:href="#Cmr10-6e" x="1365.722656"/>
     <use xlink:href="#Cmr10-67" x="1421.240234"/>
     <use xlink:href="#Cmr10-20" x="1471.240234"/>
     <use xlink:href="#Cmr10-2d" x="1504.541016"/>
     <use xlink:href="#Cmr10-20" x="1537.841797"/>
     <use xlink:href="#Cmr10-74" x="1571.142578"/>
     <use xlink:href="#Cmr10-65" x="1609.960938"/>
     <use xlink:href="#Cmr10-73" x="1654.345703"/>
     <use xlink:href="#Cmr10-73" x="1693.75"/>
     <use xlink:href="#Cmr10-32" x="1733.154297"/>
     <use xlink:href="#Cmr10-30" x="1783.154297"/>
     <use xlink:href="#Cmr10-32" x="1833.154297"/>
     <use xlink:href="#Cmr10-31" x="1883.154297"/>
     <use xlink:href="#Cmr10-31" x="1933.154297"/>
     <use xlink:href="#Cmr10-37" x="1983.154297"/>
     <use xlink:href="#Cmr10-35" x="2033.154297"/>
     <use xlink:href="#Cmr10-30" x="2083.154297"/>
     <use xlink:href="#Cmr10-37" x="2133.154297"/>
     <use xlink:href="#Cmr10-31" x="2183.154297"/>
     <use xlink:href="#Cmr10-39" x="2233.154297"/>
     <use xlink:href="#Cmr10-30" x="2283.154297"/>
     <use xlink:href="#Cmr10-31" x="2333.154297"/>
     <use xlink:href="#Cmr10-2d" x="2383.154297"/>
     <use xlink:href="#Cmr10-73" x="2416.455078"/>
     <use xlink:href="#Cmr10-30" x="2455.859375"/>
     <use xlink:href="#Cmr10-30" x="2505.859375"/>
     <use xlink:href="#Cmr10-34" x="2555.859375"/>
     <use xlink:href="#Cmr10-30" x="2605.859375"/>
     <use xlink:href="#Cmr10-2d" x="2655.859375"/>
     <use xlink:href="#Cmr10-30" x="2689.160156"/>
     <use xlink:href="#Cmr10-30" x="2739.160156"/>
     <use xlink:href="#Cmr10-30" x="2789.160156"/>
     <use xlink:href="#Cmr10-30" x="2839.160156"/>
     <use xlink:href="#Cmr10-30" x="2889.160156"/>
     <use xlink:href="#Cmr10-31" x="2939.160156"/>
     <use xlink:href="#Cmr10-30" x="2989.160156"/>
     <use xlink:href="#Cmr10-30" x="3039.160156"/>
     <use xlink:href="#Cmr10-30" x="3089.160156"/>
     <use xlink:href="#Cmr10-32" x="3139.160156"/>
     <use xlink:href="#Cmr10-30" x="3189.160156"/>
     <use xlink:href="#Cmr10-31" x="3239.160156"/>
     <use xlink:href="#Cmr10-38" x="3289.160156"/>
     <use xlink:href="#Cmr10-34" x="3339.160156"/>
     <use xlink:href="#Cmr10-32" x="3389.160156"/>
     <use xlink:href="#Cmr10-34" x="3439.160156"/>
     <use xlink:href="#Cmr10-2d" x="3489.160156"/>
     <use xlink:href="#Cmr10-30" x="3522.460938"/>
     <use xlink:href="#Cmr10-32" x="3572.460938"/>
     <use xlink:href="#Cmr10-31" x="3622.460938"/>
     <use xlink:href="#Cmr10-31" x="3672.460938"/>
     <use xlink:href="#Cmr10-2d" x="3722.460938"/>
     <use xlink:href="#Cmr10-73" x="3755.761719"/>
     <use xlink:href="#Cmr10-5f" x="3795.166016"/>
     <use xlink:href="#Cmr10-6c" x="3822.851562"/>
     <use xlink:href="#Cmr10-63" x="3850.537109"/>
    </g>
   </g>
  </g>
 </g>
 <defs>
  <clipPath id="pc5bc09ac9e">
   <rect x="97.794375" y="18.6" width="279" height="249.48"/>
  </clipPath>
 </defs>
</svg>
