<?xml version="1.0" encoding="utf-8" standalone="no"?>
<!DOCTYPE svg PUBLIC "-//W3C//DTD SVG 1.1//EN"
  "http://www.w3.org/Graphics/SVG/1.1/DTD/svg11.dtd">
<svg xmlns:xlink="http://www.w3.org/1999/xlink" width="423.95375pt" height="296.60375pt" viewBox="0 0 423.95375 296.60375" xmlns="http://www.w3.org/2000/svg" version="1.1">
 <metadata>
  <rdf:RDF xmlns:dc="http://purl.org/dc/elements/1.1/" xmlns:cc="http://creativecommons.org/ns#" xmlns:rdf="http://www.w3.org/1999/02/22-rdf-syntax-ns#">
   <cc:Work>
    <dc:type rdf:resource="http://purl.org/dc/dcmitype/StillImage"/>
    <dc:date>2026-07-18T16:21:39.240144</dc:date>
    <dc:format>image/svg+xml</dc:format>
    <dc:creator>
     <cc:Agent>
      <dc:title>Matplotlib v3.9.0, https://matplotlib.org/</dc:title>
     </cc:Agent>
    </dc:creator>
   </cc:Work>
  </rdf:RDF>
 </metadata>
 <defs>
  <style type="text/css">*{stroke-linejoin: round; stroke-linecap: butt}</style>
 </defs>
 <g id="figure_1">
  <g id="patch_1">
   <path d="M 0 296.60375
L 423.95375 296.60375
L 423.95375 0
L 0 0
z
" style="fill: #ffffff"/>
  </g>
  <g id="axes_1">
   <g id="patch_2">
    <path d="M 47.782813 267.406875
L 382.582812 267.406875
L 382.582812 17.926875
L 47.782813 17.926875
z
" style="fill: #ffffff"/>
   </g>
   <g id="patch_3">
    <path d="M 63.000994 267.406875
L 73.146449 267.406875
L 73.146449 57.949449
L 63.000994 57.949449
z
" clip-path="url(#p540be22513)" style="fill: #1f77b4; opacity: 0.6"/>
   </g>
   <g id="patch_4">
    <path d="M 73.146449 267.406875
L 83.291903 267.406875
L 83.291903 239.525687
L 73.146449 239.525687
z
" clip-path="url(#p540be22513)" style="fill: #1f77b4; opacity: 0.6"/>
   </g>
   <g id="patch_5">
    <path d="M 83.291903 267.406875
L 93.437358 267.406875
L 93.437358 255.644499
L 83.291903 255.644499
z
" clip-path="url(#p540be22513)" style="fill: #1f77b4; opacity: 0.6"/>
   </g>
   <g id="patch_6">
    <path d="M 93.437358 267.406875
L 103.582812 267.406875
L 103.582812 256.951429
L 93.437358 256.951429
z
" clip-path="url(#p540be22513)" style="fill: #1f77b4; opacity: 0.6"/>
   </g>
   <g id="patch_7">
    <path d="M 103.582813 267.406875
L 113.728267 267.406875
L 113.728267 256.951429
L 103.582813 256.951429
z
" clip-path="url(#p540be22513)" style="fill: #1f77b4; opacity: 0.6"/>
   </g>
   <g id="patch_8">
    <path d="M 113.728267 267.406875
L 123.873722 267.406875
L 123.873722 255.121726
L 113.728267 255.121726
z
" clip-path="url(#p540be22513)" style="fill: #1f77b4; opacity: 0.6"/>
   </g>
   <g id="patch_9">
    <path d="M 123.873722 267.406875
L 134.019176 267.406875
L 134.019176 244.143509
L 123.873722 244.143509
z
" clip-path="url(#p540be22513)" style="fill: #1f77b4; opacity: 0.6"/>
   </g>
   <g id="patch_10">
    <path d="M 134.019176 267.406875
L 144.164631 267.406875
L 144.164631 251.985093
L 134.019176 251.985093
z
" clip-path="url(#p540be22513)" style="fill: #1f77b4; opacity: 0.6"/>
   </g>
   <g id="patch_11">
    <path d="M 144.164631 267.406875
L 154.310085 267.406875
L 154.310085 254.947469
L 144.164631 254.947469
z
" clip-path="url(#p540be22513)" style="fill: #1f77b4; opacity: 0.6"/>
   </g>
   <g id="patch_12">
    <path d="M 154.310085 267.406875
L 164.45554 267.406875
L 164.45554 237.521726
L 154.310085 237.521726
z
" clip-path="url(#p540be22513)" style="fill: #1f77b4; opacity: 0.6"/>
   </g>
   <g id="patch_13">
    <path d="M 164.45554 267.406875
L 174.600994 267.406875
L 174.600994 239.874202
L 164.45554 239.874202
z
" clip-path="url(#p540be22513)" style="fill: #1f77b4; opacity: 0.6"/>
   </g>
   <g id="patch_14">
    <path d="M 174.600994 267.406875
L 184.746449 267.406875
L 184.746449 232.642519
L 174.600994 232.642519
z
" clip-path="url(#p540be22513)" style="fill: #1f77b4; opacity: 0.6"/>
   </g>
   <g id="patch_15">
    <path d="M 184.746449 267.406875
L 194.891903 267.406875
L 194.891903 195.96133
L 184.746449 195.96133
z
" clip-path="url(#p540be22513)" style="fill: #1f77b4; opacity: 0.6"/>
   </g>
   <g id="patch_16">
    <path d="M 194.891903 267.406875
L 205.037358 267.406875
L 205.037358 132.35737
L 194.891903 132.35737
z
" clip-path="url(#p540be22513)" style="fill: #1f77b4; opacity: 0.6"/>
   </g>
   <g id="patch_17">
    <path d="M 205.037358 267.406875
L 215.182812 267.406875
L 215.182812 78.86034
L 205.037358 78.86034
z
" clip-path="url(#p540be22513)" style="fill: #1f77b4; opacity: 0.6"/>
   </g>
   <g id="patch_18">
    <path d="M 215.182812 267.406875
L 225.328267 267.406875
L 225.328267 119.462321
L 215.182812 119.462321
z
" clip-path="url(#p540be22513)" style="fill: #1f77b4; opacity: 0.6"/>
   </g>
   <g id="patch_19">
    <path d="M 225.328267 267.406875
L 235.473722 267.406875
L 235.473722 73.632618
L 225.328267 73.632618
z
" clip-path="url(#p540be22513)" style="fill: #1f77b4; opacity: 0.6"/>
   </g>
   <g id="patch_20">
    <path d="M 235.473722 267.406875
L 245.619176 267.406875
L 245.619176 29.806875
L 235.473722 29.806875
z
" clip-path="url(#p540be22513)" style="fill: #1f77b4; opacity: 0.6"/>
   </g>
   <g id="patch_21">
    <path d="M 245.619176 267.406875
L 255.764631 267.406875
L 255.764631 174.963311
L 245.619176 174.963311
z
" clip-path="url(#p540be22513)" style="fill: #1f77b4; opacity: 0.6"/>
   </g>
   <g id="patch_22">
    <path d="M 255.764631 267.406875
L 265.910085 267.406875
L 265.910085 226.369251
L 255.764631 226.369251
z
" clip-path="url(#p540be22513)" style="fill: #1f77b4; opacity: 0.6"/>
   </g>
   <g id="patch_23">
    <path d="M 265.910085 267.406875
L 276.05554 267.406875
L 276.05554 226.804895
L 265.910085 226.804895
z
" clip-path="url(#p540be22513)" style="fill: #1f77b4; opacity: 0.6"/>
   </g>
   <g id="patch_24">
    <path d="M 276.05554 267.406875
L 286.200994 267.406875
L 286.200994 232.294004
L 276.05554 232.294004
z
" clip-path="url(#p540be22513)" style="fill: #1f77b4; opacity: 0.6"/>
   </g>
   <g id="patch_25">
    <path d="M 286.200994 267.406875
L 296.346449 267.406875
L 296.346449 244.143509
L 286.200994 244.143509
z
" clip-path="url(#p540be22513)" style="fill: #1f77b4; opacity: 0.6"/>
   </g>
   <g id="patch_26">
    <path d="M 296.346449 267.406875
L 306.491903 267.406875
L 306.491903 242.836578
L 296.346449 242.836578
z
" clip-path="url(#p540be22513)" style="fill: #1f77b4; opacity: 0.6"/>
   </g>
   <g id="patch_27">
    <path d="M 306.491903 267.406875
L 316.637358 267.406875
L 316.637358 253.030637
L 306.491903 253.030637
z
" clip-path="url(#p540be22513)" style="fill: #1f77b4; opacity: 0.6"/>
   </g>
   <g id="patch_28">
    <path d="M 316.637358 267.406875
L 326.782812 267.406875
L 326.782812 253.379152
L 316.637358 253.379152
z
" clip-path="url(#p540be22513)" style="fill: #1f77b4; opacity: 0.6"/>
   </g>
   <g id="patch_29">
    <path d="M 326.782812 267.406875
L 336.928267 267.406875
L 336.928267 256.602915
L 326.782812 256.602915
z
" clip-path="url(#p540be22513)" style="fill: #1f77b4; opacity: 0.6"/>
   </g>
   <g id="patch_30">
    <path d="M 336.928267 267.406875
L 347.073722 267.406875
L 347.073722 263.137568
L 336.928267 263.137568
z
" clip-path="url(#p540be22513)" style="fill: #1f77b4; opacity: 0.6"/>
   </g>
   <g id="patch_31">
    <path d="M 347.073722 267.406875
L 357.219176 267.406875
L 357.219176 263.573212
L 347.073722 263.573212
z
" clip-path="url(#p540be22513)" style="fill: #1f77b4; opacity: 0.6"/>
   </g>
   <g id="patch_32">
    <path d="M 357.219176 267.406875
L 367.364631 267.406875
L 367.364631 262.179152
L 357.219176 262.179152
z
" clip-path="url(#p540be22513)" style="fill: #1f77b4; opacity: 0.6"/>
   </g>
   <g id="matplotlib.axis_1">
    <g id="xtick_1">
     <g id="line2d_1">
      <defs>
       <path id="mabbb4ece3f" d="M 0 0
L 0 -3
" style="stroke: #000000; stroke-width: 0.5"/>
      </defs>
      <g>
       <use xlink:href="#mabbb4ece3f" x="89.504923" y="267.406875" style="stroke: #000000; stroke-width: 0.5"/>
      </g>
     </g>
     <g id="line2d_2">
      <defs>
       <path id="m9315b13430" d="M 0 0
L 0 3
" style="stroke: #000000; stroke-width: 0.5"/>
      </defs>
      <g>
       <use xlink:href="#m9315b13430" x="89.504923" y="17.926875" style="stroke: #000000; stroke-width: 0.5"/>
      </g>
     </g>
     <g id="text_1">
      <!-- $\mathdefault{800}$ -->
      <g transform="translate(82.004923 277.845937) scale(0.1 -0.1)">
       <defs>
        <path id="Cmr10-38" d="M 269 972
Q 269 1356 522 1651
Q 775 1947 1172 2144
L 934 2297
Q 716 2441 578 2680
Q 441 2919 441 3181
Q 441 3488 602 3734
Q 763 3981 1030 4122
Q 1297 4263 1600 4263
Q 1884 4263 2148 4147
Q 2413 4031 2583 3815
Q 2753 3600 2753 3303
Q 2753 3088 2651 2903
Q 2550 2719 2373 2572
Q 2197 2425 1997 2322
L 2363 2088
Q 2616 1922 2770 1653
Q 2925 1384 2925 1088
Q 2925 741 2739 456
Q 2553 172 2247 15
Q 1941 -141 1600 -141
Q 1269 -141 961 -6
Q 653 128 461 383
Q 269 638 269 972
z
M 616 972
Q 616 719 755 509
Q 894 300 1122 181
Q 1350 63 1600 63
Q 1972 63 2275 280
Q 2578 497 2578 856
Q 2578 978 2529 1098
Q 2481 1219 2395 1317
Q 2309 1416 2203 1478
L 1344 2034
Q 1144 1928 976 1765
Q 809 1603 712 1400
Q 616 1197 616 972
z
M 1056 2925
L 1831 2425
Q 2100 2581 2272 2803
Q 2444 3025 2444 3303
Q 2444 3519 2323 3698
Q 2203 3878 2009 3978
Q 1816 4078 1594 4078
Q 1400 4078 1203 4003
Q 1006 3928 878 3779
Q 750 3631 750 3431
Q 750 3131 1056 2925
z
" transform="scale(0.015625)"/>
        <path id="Cmr10-30" d="M 1600 -141
Q 816 -141 533 504
Q 250 1150 250 2041
Q 250 2597 351 3087
Q 453 3578 754 3920
Q 1056 4263 1600 4263
Q 2022 4263 2290 4056
Q 2559 3850 2700 3523
Q 2841 3197 2892 2823
Q 2944 2450 2944 2041
Q 2944 1491 2842 1011
Q 2741 531 2444 195
Q 2147 -141 1600 -141
z
M 1600 25
Q 1956 25 2131 390
Q 2306 756 2347 1200
Q 2388 1644 2388 2144
Q 2388 2625 2347 3031
Q 2306 3438 2132 3767
Q 1959 4097 1600 4097
Q 1238 4097 1063 3765
Q 888 3434 847 3029
Q 806 2625 806 2144
Q 806 1788 823 1472
Q 841 1156 916 820
Q 991 484 1158 254
Q 1325 25 1600 25
z
" transform="scale(0.015625)"/>
       </defs>
       <use xlink:href="#Cmr10-38" transform="translate(0 0.390625)"/>
       <use xlink:href="#Cmr10-30" transform="translate(50 0.390625)"/>
       <use xlink:href="#Cmr10-30" transform="translate(100 0.390625)"/>
      </g>
     </g>
    </g>
    <g id="xtick_2">
     <g id="line2d_3">
      <g>
       <use xlink:href="#mabbb4ece3f" x="150.822201" y="267.406875" style="stroke: #000000; stroke-width: 0.5"/>
      </g>
     </g>
     <g id="line2d_4">
      <g>
       <use xlink:href="#m9315b13430" x="150.822201" y="17.926875" style="stroke: #000000; stroke-width: 0.5"/>
      </g>
     </g>
     <g id="text_2">
      <!-- $\mathdefault{1000}$ -->
      <g transform="translate(140.822201 277.845937) scale(0.1 -0.1)">
       <defs>
        <path id="Cmr10-31" d="M 594 0
L 594 225
Q 1394 225 1394 428
L 1394 3788
Q 1063 3628 556 3628
L 556 3853
Q 1341 3853 1741 4263
L 1831 4263
Q 1853 4263 1873 4245
Q 1894 4228 1894 4206
L 1894 428
Q 1894 225 2694 225
L 2694 0
L 594 0
z
" transform="scale(0.015625)"/>
       </defs>
       <use xlink:href="#Cmr10-31" transform="translate(0 0.390625)"/>
       <use xlink:href="#Cmr10-30" transform="translate(50 0.390625)"/>
       <use xlink:href="#Cmr10-30" transform="translate(100 0.390625)"/>
       <use xlink:href="#Cmr10-30" transform="translate(150 0.390625)"/>
      </g>
     </g>
    </g>
    <g id="xtick_3">
     <g id="line2d_5">
      <g>
       <use xlink:href="#mabbb4ece3f" x="212.139479" y="267.406875" style="stroke: #000000; stroke-width: 0.5"/>
      </g>
     </g>
     <g id="line2d_6">
      <g>
       <use xlink:href="#m9315b13430" x="212.139479" y="17.926875" style="stroke: #000000; stroke-width: 0.5"/>
      </g>
     </g>
     <g id="text_3">
      <!-- $\mathdefault{1200}$ -->
      <g transform="translate(202.139479 277.845937) scale(0.1 -0.1)">
       <defs>
        <path id="Cmr10-32" d="M 319 0
L 319 172
Q 319 188 331 206
L 1325 1306
Q 1550 1550 1690 1715
Q 1831 1881 1968 2097
Q 2106 2313 2186 2536
Q 2266 2759 2266 3009
Q 2266 3272 2169 3511
Q 2072 3750 1880 3894
Q 1688 4038 1416 4038
Q 1138 4038 916 3870
Q 694 3703 603 3438
Q 628 3444 672 3444
Q 816 3444 917 3347
Q 1019 3250 1019 3097
Q 1019 2950 917 2848
Q 816 2747 672 2747
Q 522 2747 420 2851
Q 319 2956 319 3097
Q 319 3338 409 3548
Q 500 3759 670 3923
Q 841 4088 1055 4175
Q 1269 4263 1509 4263
Q 1875 4263 2190 4108
Q 2506 3953 2690 3670
Q 2875 3388 2875 3009
Q 2875 2731 2753 2481
Q 2631 2231 2440 2026
Q 2250 1822 1953 1562
Q 1656 1303 1563 1216
L 838 519
L 1453 519
Q 1906 519 2211 526
Q 2516 534 2534 550
Q 2609 631 2688 1141
L 2875 1141
L 2694 0
L 319 0
z
" transform="scale(0.015625)"/>
       </defs>
       <use xlink:href="#Cmr10-31" transform="translate(0 0.390625)"/>
       <use xlink:href="#Cmr10-32" transform="translate(50 0.390625)"/>
       <use xlink:href="#Cmr10-30" transform="translate(100 0.390625)"/>
       <use xlink:href="#Cmr10-30" transform="translate(150 0.390625)"/>
      </g>
     </g>
    </g>
    <g id="xtick_4">
     <g id="line2d_7">
      <g>
       <use xlink:href="#mabbb4ece3f" x="273.456756" y="267.406875" style="stroke: #000000; stroke-width: 0.5"/>
      </g>
     </g>
     <g id="line2d_8">
      <g>
       <use xlink:href="#m9315b13430" x="273.456756" y="17.926875" style="stroke: #000000; stroke-width: 0.5"/>
      </g>
     </g>
     <g id="text_4">
      <!-- $\mathdefault{1400}$ -->
      <g transform="translate(263.456756 277.845937) scale(0.1 -0.1)">
       <defs>
        <path id="Cmr10-34" d="M 178 1056
L 178 1281
L 2156 4231
Q 2178 4263 2222 4263
L 2316 4263
Q 2388 4263 2388 4191
L 2388 1281
L 3016 1281
L 3016 1056
L 2388 1056
L 2388 428
Q 2388 297 2575 261
Q 2763 225 3009 225
L 3009 0
L 1247 0
L 1247 225
Q 1494 225 1681 261
Q 1869 297 1869 428
L 1869 1056
L 178 1056
z
M 391 1281
L 1906 1281
L 1906 3547
L 391 1281
z
" transform="scale(0.015625)"/>
       </defs>
       <use xlink:href="#Cmr10-31" transform="translate(0 0.390625)"/>
       <use xlink:href="#Cmr10-34" transform="translate(50 0.390625)"/>
       <use xlink:href="#Cmr10-30" transform="translate(100 0.390625)"/>
       <use xlink:href="#Cmr10-30" transform="translate(150 0.390625)"/>
      </g>
     </g>
    </g>
    <g id="xtick_5">
     <g id="line2d_9">
      <g>
       <use xlink:href="#mabbb4ece3f" x="334.774034" y="267.406875" style="stroke: #000000; stroke-width: 0.5"/>
      </g>
     </g>
     <g id="line2d_10">
      <g>
       <use xlink:href="#m9315b13430" x="334.774034" y="17.926875" style="stroke: #000000; stroke-width: 0.5"/>
      </g>
     </g>
     <g id="text_5">
      <!-- $\mathdefault{1600}$ -->
      <g transform="translate(324.774034 277.845937) scale(0.1 -0.1)">
       <defs>
        <path id="Cmr10-36" d="M 1600 -141
Q 1203 -141 937 70
Q 672 281 526 617
Q 381 953 325 1322
Q 269 1691 269 2069
Q 269 2575 466 3084
Q 663 3594 1045 3928
Q 1428 4263 1953 4263
Q 2172 4263 2361 4180
Q 2550 4097 2658 3936
Q 2766 3775 2766 3547
Q 2766 3416 2677 3327
Q 2588 3238 2456 3238
Q 2331 3238 2240 3328
Q 2150 3419 2150 3547
Q 2150 3672 2240 3762
Q 2331 3853 2456 3853
L 2491 3853
Q 2409 3969 2261 4023
Q 2113 4078 1953 4078
Q 1759 4078 1595 3993
Q 1431 3909 1300 3765
Q 1169 3622 1081 3448
Q 994 3275 945 3053
Q 897 2831 884 2637
Q 872 2444 872 2150
Q 984 2413 1190 2580
Q 1397 2747 1656 2747
Q 1941 2747 2175 2631
Q 2409 2516 2578 2311
Q 2747 2106 2836 1843
Q 2925 1581 2925 1313
Q 2925 938 2758 598
Q 2591 259 2287 59
Q 1984 -141 1600 -141
z
M 1600 63
Q 1847 63 1997 175
Q 2147 288 2217 473
Q 2288 659 2305 848
Q 2322 1038 2322 1313
Q 2322 1675 2287 1931
Q 2253 2188 2100 2383
Q 1947 2578 1631 2578
Q 1372 2578 1205 2403
Q 1038 2228 961 1961
Q 884 1694 884 1447
Q 884 1363 891 1319
Q 891 1309 889 1303
Q 888 1297 884 1288
Q 884 1013 940 731
Q 997 450 1156 256
Q 1316 63 1600 63
z
" transform="scale(0.015625)"/>
       </defs>
       <use xlink:href="#Cmr10-31" transform="translate(0 0.390625)"/>
       <use xlink:href="#Cmr10-36" transform="translate(50 0.390625)"/>
       <use xlink:href="#Cmr10-30" transform="translate(100 0.390625)"/>
       <use xlink:href="#Cmr10-30" transform="translate(150 0.390625)"/>
      </g>
     </g>
    </g>
    <g id="xtick_6">
     <g id="line2d_11">
      <defs>
       <path id="mbcdc3e78bc" d="M 0 0
L 0 -1.5
" style="stroke: #000000; stroke-width: 0.5"/>
      </defs>
      <g>
       <use xlink:href="#mbcdc3e78bc" x="58.846285" y="267.406875" style="stroke: #000000; stroke-width: 0.5"/>
      </g>
     </g>
     <g id="line2d_12">
      <defs>
       <path id="me1f10388cb" d="M 0 0
L 0 1.5
" style="stroke: #000000; stroke-width: 0.5"/>
      </defs>
      <g>
       <use xlink:href="#me1f10388cb" x="58.846285" y="17.926875" style="stroke: #000000; stroke-width: 0.5"/>
      </g>
     </g>
    </g>
    <g id="xtick_7">
     <g id="line2d_13">
      <g>
       <use xlink:href="#mbcdc3e78bc" x="74.175604" y="267.406875" style="stroke: #000000; stroke-width: 0.5"/>
      </g>
     </g>
     <g id="line2d_14">
      <g>
       <use xlink:href="#me1f10388cb" x="74.175604" y="17.926875" style="stroke: #000000; stroke-width: 0.5"/>
      </g>
     </g>
    </g>
    <g id="xtick_8">
     <g id="line2d_15">
      <g>
       <use xlink:href="#mbcdc3e78bc" x="104.834243" y="267.406875" style="stroke: #000000; stroke-width: 0.5"/>
      </g>
     </g>
     <g id="line2d_16">
      <g>
       <use xlink:href="#me1f10388cb" x="104.834243" y="17.926875" style="stroke: #000000; stroke-width: 0.5"/>
      </g>
     </g>
    </g>
    <g id="xtick_9">
     <g id="line2d_17">
      <g>
       <use xlink:href="#mbcdc3e78bc" x="120.163562" y="267.406875" style="stroke: #000000; stroke-width: 0.5"/>
      </g>
     </g>
     <g id="line2d_18">
      <g>
       <use xlink:href="#me1f10388cb" x="120.163562" y="17.926875" style="stroke: #000000; stroke-width: 0.5"/>
      </g>
     </g>
    </g>
    <g id="xtick_10">
     <g id="line2d_19">
      <g>
       <use xlink:href="#mbcdc3e78bc" x="135.492882" y="267.406875" style="stroke: #000000; stroke-width: 0.5"/>
      </g>
     </g>
     <g id="line2d_20">
      <g>
       <use xlink:href="#me1f10388cb" x="135.492882" y="17.926875" style="stroke: #000000; stroke-width: 0.5"/>
      </g>
     </g>
    </g>
    <g id="xtick_11">
     <g id="line2d_21">
      <g>
       <use xlink:href="#mbcdc3e78bc" x="166.15152" y="267.406875" style="stroke: #000000; stroke-width: 0.5"/>
      </g>
     </g>
     <g id="line2d_22">
      <g>
       <use xlink:href="#me1f10388cb" x="166.15152" y="17.926875" style="stroke: #000000; stroke-width: 0.5"/>
      </g>
     </g>
    </g>
    <g id="xtick_12">
     <g id="line2d_23">
      <g>
       <use xlink:href="#mbcdc3e78bc" x="181.48084" y="267.406875" style="stroke: #000000; stroke-width: 0.5"/>
      </g>
     </g>
     <g id="line2d_24">
      <g>
       <use xlink:href="#me1f10388cb" x="181.48084" y="17.926875" style="stroke: #000000; stroke-width: 0.5"/>
      </g>
     </g>
    </g>
    <g id="xtick_13">
     <g id="line2d_25">
      <g>
       <use xlink:href="#mbcdc3e78bc" x="196.810159" y="267.406875" style="stroke: #000000; stroke-width: 0.5"/>
      </g>
     </g>
     <g id="line2d_26">
      <g>
       <use xlink:href="#me1f10388cb" x="196.810159" y="17.926875" style="stroke: #000000; stroke-width: 0.5"/>
      </g>
     </g>
    </g>
    <g id="xtick_14">
     <g id="line2d_27">
      <g>
       <use xlink:href="#mbcdc3e78bc" x="227.468798" y="267.406875" style="stroke: #000000; stroke-width: 0.5"/>
      </g>
     </g>
     <g id="line2d_28">
      <g>
       <use xlink:href="#me1f10388cb" x="227.468798" y="17.926875" style="stroke: #000000; stroke-width: 0.5"/>
      </g>
     </g>
    </g>
    <g id="xtick_15">
     <g id="line2d_29">
      <g>
       <use xlink:href="#mbcdc3e78bc" x="242.798117" y="267.406875" style="stroke: #000000; stroke-width: 0.5"/>
      </g>
     </g>
     <g id="line2d_30">
      <g>
       <use xlink:href="#me1f10388cb" x="242.798117" y="17.926875" style="stroke: #000000; stroke-width: 0.5"/>
      </g>
     </g>
    </g>
    <g id="xtick_16">
     <g id="line2d_31">
      <g>
       <use xlink:href="#mbcdc3e78bc" x="258.127437" y="267.406875" style="stroke: #000000; stroke-width: 0.5"/>
      </g>
     </g>
     <g id="line2d_32">
      <g>
       <use xlink:href="#me1f10388cb" x="258.127437" y="17.926875" style="stroke: #000000; stroke-width: 0.5"/>
      </g>
     </g>
    </g>
    <g id="xtick_17">
     <g id="line2d_33">
      <g>
       <use xlink:href="#mbcdc3e78bc" x="288.786075" y="267.406875" style="stroke: #000000; stroke-width: 0.5"/>
      </g>
     </g>
     <g id="line2d_34">
      <g>
       <use xlink:href="#me1f10388cb" x="288.786075" y="17.926875" style="stroke: #000000; stroke-width: 0.5"/>
      </g>
     </g>
    </g>
    <g id="xtick_18">
     <g id="line2d_35">
      <g>
       <use xlink:href="#mbcdc3e78bc" x="304.115395" y="267.406875" style="stroke: #000000; stroke-width: 0.5"/>
      </g>
     </g>
     <g id="line2d_36">
      <g>
       <use xlink:href="#me1f10388cb" x="304.115395" y="17.926875" style="stroke: #000000; stroke-width: 0.5"/>
      </g>
     </g>
    </g>
    <g id="xtick_19">
     <g id="line2d_37">
      <g>
       <use xlink:href="#mbcdc3e78bc" x="319.444714" y="267.406875" style="stroke: #000000; stroke-width: 0.5"/>
      </g>
     </g>
     <g id="line2d_38">
      <g>
       <use xlink:href="#me1f10388cb" x="319.444714" y="17.926875" style="stroke: #000000; stroke-width: 0.5"/>
      </g>
     </g>
    </g>
    <g id="xtick_20">
     <g id="line2d_39">
      <g>
       <use xlink:href="#mbcdc3e78bc" x="350.103353" y="267.406875" style="stroke: #000000; stroke-width: 0.5"/>
      </g>
     </g>
     <g id="line2d_40">
      <g>
       <use xlink:href="#me1f10388cb" x="350.103353" y="17.926875" style="stroke: #000000; stroke-width: 0.5"/>
      </g>
     </g>
    </g>
    <g id="xtick_21">
     <g id="line2d_41">
      <g>
       <use xlink:href="#mbcdc3e78bc" x="365.432672" y="267.406875" style="stroke: #000000; stroke-width: 0.5"/>
      </g>
     </g>
     <g id="line2d_42">
      <g>
       <use xlink:href="#me1f10388cb" x="365.432672" y="17.926875" style="stroke: #000000; stroke-width: 0.5"/>
      </g>
     </g>
    </g>
    <g id="xtick_22">
     <g id="line2d_43">
      <g>
       <use xlink:href="#mbcdc3e78bc" x="380.761992" y="267.406875" style="stroke: #000000; stroke-width: 0.5"/>
      </g>
     </g>
     <g id="line2d_44">
      <g>
       <use xlink:href="#me1f10388cb" x="380.761992" y="17.926875" style="stroke: #000000; stroke-width: 0.5"/>
      </g>
     </g>
    </g>
    <g id="text_6">
     <!-- SAP background flux -->
     <g transform="translate(168.19375 290.942812) scale(0.1 -0.1)">
      <defs>
       <path id="Cmr10-53" d="M 359 -91
L 359 1403
Q 359 1453 416 1453
L 494 1453
Q 513 1453 528 1437
Q 544 1422 544 1403
Q 544 775 933 429
Q 1322 84 1953 84
Q 2175 84 2362 212
Q 2550 341 2654 548
Q 2759 756 2759 978
Q 2759 1172 2681 1355
Q 2603 1538 2456 1672
Q 2309 1806 2125 1850
L 1294 2053
Q 881 2163 620 2502
Q 359 2841 359 3263
Q 359 3594 528 3884
Q 697 4175 983 4344
Q 1269 4513 1600 4513
Q 2241 4513 2619 4078
L 2881 4494
Q 2900 4513 2925 4513
L 2969 4513
Q 2988 4513 3005 4498
Q 3022 4484 3022 4459
L 3022 2975
Q 3022 2919 2969 2919
L 2894 2919
Q 2834 2919 2834 2975
Q 2834 3138 2779 3331
Q 2725 3525 2628 3703
Q 2531 3881 2419 3994
Q 2109 4306 1600 4306
Q 1381 4306 1197 4195
Q 1013 4084 903 3893
Q 794 3703 794 3494
Q 794 3219 964 2995
Q 1134 2772 1409 2700
L 2241 2497
Q 2447 2447 2630 2317
Q 2813 2188 2934 2016
Q 3056 1844 3125 1633
Q 3194 1422 3194 1197
Q 3194 850 3034 542
Q 2875 234 2586 46
Q 2297 -141 1953 -141
Q 1741 -141 1519 -94
Q 1297 -47 1109 50
Q 922 147 769 300
L 500 -122
Q 481 -141 453 -141
L 416 -141
Q 359 -141 359 -91
z
" transform="scale(0.015625)"/>
       <path id="Cmr10-41" d="M 206 0
L 206 225
Q 778 225 909 603
L 2253 4513
Q 2272 4581 2356 4581
L 2438 4581
Q 2522 4581 2541 4513
L 3944 428
Q 4003 294 4170 259
Q 4338 225 4588 225
L 4588 0
L 2803 0
L 2803 225
Q 3334 225 3334 397
L 3334 428
L 2988 1428
L 1434 1428
L 1147 603
Q 1141 581 1141 538
Q 1141 378 1292 301
Q 1444 225 1619 225
L 1619 0
L 206 0
z
M 1509 1650
L 2913 1650
L 2209 3694
L 1509 1650
z
" transform="scale(0.015625)"/>
       <path id="Cmr10-50" d="M 213 0
L 213 225
Q 872 225 872 428
L 872 3944
Q 872 4147 213 4147
L 213 4372
L 2491 4372
Q 2841 4372 3191 4228
Q 3541 4084 3767 3809
Q 3994 3534 3994 3169
Q 3994 2813 3766 2544
Q 3538 2275 3191 2136
Q 2844 1997 2491 1997
L 1466 1997
L 1466 428
Q 1466 225 2125 225
L 2125 0
L 213 0
z
M 1447 2188
L 2316 2188
Q 2669 2188 2887 2289
Q 3106 2391 3207 2605
Q 3309 2819 3309 3169
Q 3309 3691 3079 3919
Q 2850 4147 2316 4147
L 1772 4147
Q 1656 4147 1592 4137
Q 1528 4128 1487 4083
Q 1447 4038 1447 3944
L 1447 2188
z
" transform="scale(0.015625)"/>
       <path id="Cmr10-20" transform="scale(0.015625)"/>
       <path id="Cmr10-62" d="M 666 0
L 666 3788
Q 666 3959 614 4036
Q 563 4113 466 4130
Q 369 4147 166 4147
L 166 4372
L 1113 4441
L 1113 2438
Q 1219 2556 1361 2645
Q 1503 2734 1665 2781
Q 1828 2828 1997 2828
Q 2284 2828 2529 2712
Q 2775 2597 2956 2394
Q 3138 2191 3239 1927
Q 3341 1663 3341 1381
Q 3341 994 3152 659
Q 2963 325 2636 126
Q 2309 -72 1919 -72
Q 1675 -72 1447 53
Q 1219 178 1069 384
L 850 0
L 666 0
z
M 1131 628
Q 1238 394 1438 245
Q 1638 97 1881 97
Q 2213 97 2417 287
Q 2622 478 2703 768
Q 2784 1059 2784 1381
Q 2784 1922 2644 2203
Q 2581 2328 2473 2434
Q 2366 2541 2233 2602
Q 2100 2663 1953 2663
Q 1697 2663 1478 2527
Q 1259 2391 1131 2163
L 1131 628
z
" transform="scale(0.015625)"/>
       <path id="Cmr10-61" d="M 256 628
Q 256 1009 556 1248
Q 856 1488 1276 1586
Q 1697 1684 2075 1684
L 2075 1947
Q 2075 2131 1994 2304
Q 1913 2478 1759 2589
Q 1606 2700 1422 2700
Q 997 2700 775 2509
Q 897 2509 976 2417
Q 1056 2325 1056 2203
Q 1056 2075 965 1984
Q 875 1894 750 1894
Q 622 1894 531 1984
Q 441 2075 441 2203
Q 441 2541 747 2705
Q 1053 2869 1422 2869
Q 1681 2869 1943 2758
Q 2206 2647 2373 2440
Q 2541 2234 2541 1959
L 2541 519
Q 2541 394 2594 289
Q 2647 184 2759 184
Q 2866 184 2917 290
Q 2969 397 2969 519
L 2969 928
L 3156 928
L 3156 519
Q 3156 375 3081 245
Q 3006 116 2879 39
Q 2753 -38 2606 -38
Q 2419 -38 2283 107
Q 2147 253 2131 453
Q 2013 213 1781 70
Q 1550 -72 1288 -72
Q 1044 -72 808 0
Q 572 72 414 226
Q 256 381 256 628
z
M 775 628
Q 775 403 940 250
Q 1106 97 1331 97
Q 1538 97 1706 200
Q 1875 303 1975 481
Q 2075 659 2075 856
L 2075 1522
Q 1784 1522 1479 1426
Q 1175 1331 975 1128
Q 775 925 775 628
z
" transform="scale(0.015625)"/>
       <path id="Cmr10-63" d="M 1594 -72
Q 1206 -72 890 129
Q 575 331 394 667
Q 213 1003 213 1381
Q 213 1759 392 2106
Q 572 2453 889 2661
Q 1206 2869 1594 2869
Q 1969 2869 2276 2722
Q 2584 2575 2584 2241
Q 2584 2116 2495 2023
Q 2406 1931 2278 1931
Q 2150 1931 2061 2023
Q 1972 2116 1972 2241
Q 1972 2353 2044 2436
Q 2116 2519 2222 2541
Q 2000 2681 1600 2681
Q 1294 2681 1106 2478
Q 919 2275 844 1975
Q 769 1675 769 1381
Q 769 1072 861 783
Q 953 494 1158 305
Q 1363 116 1672 116
Q 1975 116 2187 302
Q 2400 488 2478 788
Q 2478 825 2528 825
L 2606 825
Q 2625 825 2640 808
Q 2656 791 2656 769
L 2656 750
Q 2559 372 2271 150
Q 1984 -72 1594 -72
z
" transform="scale(0.015625)"/>
       <path id="Cmr10-6b" d="M 166 0
L 166 225
Q 384 225 525 259
Q 666 294 666 428
L 666 3788
Q 666 3959 614 4036
Q 563 4113 466 4130
Q 369 4147 166 4147
L 166 4372
L 1113 4441
L 1113 1403
L 1972 2156
Q 2100 2278 2100 2381
Q 2100 2456 2047 2495
Q 1994 2534 1919 2534
L 1919 2759
L 3122 2759
L 3122 2534
Q 2688 2534 2253 2156
L 1797 1759
L 2613 603
Q 2781 363 2895 294
Q 3009 225 3272 225
L 3272 0
L 1997 0
L 1997 225
Q 2216 225 2216 359
Q 2216 456 2100 603
L 1484 1478
L 1094 1141
L 1094 428
Q 1094 294 1236 259
Q 1378 225 1594 225
L 1594 0
L 166 0
z
" transform="scale(0.015625)"/>
       <path id="Cmr10-67" d="M 178 -500
Q 178 -272 343 -101
Q 509 69 738 141
Q 609 238 542 384
Q 475 531 475 697
Q 475 997 666 1228
Q 372 1516 372 1888
Q 372 2088 458 2263
Q 544 2438 697 2566
Q 850 2694 1037 2761
Q 1225 2828 1422 2828
Q 1803 2828 2106 2606
Q 2238 2747 2417 2823
Q 2597 2900 2791 2900
Q 2928 2900 3015 2801
Q 3103 2703 3103 2566
Q 3103 2488 3043 2428
Q 2984 2369 2906 2369
Q 2825 2369 2765 2428
Q 2706 2488 2706 2566
Q 2706 2684 2784 2731
Q 2453 2731 2216 2503
Q 2331 2388 2401 2220
Q 2472 2053 2472 1888
Q 2472 1616 2322 1398
Q 2172 1181 1926 1061
Q 1681 941 1422 941
Q 1072 941 781 1131
Q 691 1006 691 850
Q 691 681 802 554
Q 913 428 1081 428
L 1606 428
Q 1988 428 2294 359
Q 2600 291 2808 84
Q 3016 -122 3016 -500
Q 3016 -781 2778 -967
Q 2541 -1153 2211 -1236
Q 1881 -1319 1600 -1319
Q 1316 -1319 984 -1236
Q 653 -1153 415 -967
Q 178 -781 178 -500
z
M 538 -500
Q 538 -716 713 -861
Q 888 -1006 1134 -1076
Q 1381 -1147 1600 -1147
Q 1816 -1147 2062 -1076
Q 2309 -1006 2482 -861
Q 2656 -716 2656 -500
Q 2656 -166 2350 -67
Q 2044 31 1606 31
L 1081 31
Q 934 31 811 -39
Q 688 -109 613 -236
Q 538 -363 538 -500
z
M 1422 1113
Q 1966 1113 1966 1888
Q 1966 2222 1850 2439
Q 1734 2656 1422 2656
Q 1109 2656 993 2439
Q 878 2222 878 1888
Q 878 1675 922 1503
Q 966 1331 1084 1222
Q 1203 1113 1422 1113
z
" transform="scale(0.015625)"/>
       <path id="Cmr10-72" d="M 166 0
L 166 225
Q 384 225 525 259
Q 666 294 666 428
L 666 2175
Q 666 2347 614 2423
Q 563 2500 466 2517
Q 369 2534 166 2534
L 166 2759
L 1081 2828
L 1081 2203
Q 1184 2481 1375 2654
Q 1566 2828 1838 2828
Q 2028 2828 2178 2715
Q 2328 2603 2328 2419
Q 2328 2303 2245 2217
Q 2163 2131 2041 2131
Q 1922 2131 1837 2215
Q 1753 2300 1753 2419
Q 1753 2591 1875 2663
L 1838 2663
Q 1578 2663 1414 2475
Q 1250 2288 1181 2009
Q 1113 1731 1113 1478
L 1113 428
Q 1113 225 1734 225
L 1734 0
L 166 0
z
" transform="scale(0.015625)"/>
       <path id="Cmr10-6f" d="M 1600 -72
Q 1216 -72 887 123
Q 559 319 368 647
Q 178 975 178 1363
Q 178 1656 283 1928
Q 388 2200 583 2414
Q 778 2628 1037 2748
Q 1297 2869 1600 2869
Q 1994 2869 2317 2661
Q 2641 2453 2828 2104
Q 3016 1756 3016 1363
Q 3016 978 2825 648
Q 2634 319 2307 123
Q 1981 -72 1600 -72
z
M 1600 116
Q 2113 116 2284 487
Q 2456 859 2456 1434
Q 2456 1756 2422 1967
Q 2388 2178 2272 2350
Q 2200 2456 2089 2536
Q 1978 2616 1854 2658
Q 1731 2700 1600 2700
Q 1400 2700 1220 2609
Q 1041 2519 922 2350
Q 803 2169 770 1951
Q 738 1734 738 1434
Q 738 1075 800 789
Q 863 503 1052 309
Q 1241 116 1600 116
z
" transform="scale(0.015625)"/>
       <path id="Cmr10-75" d="M 691 763
L 691 2175
Q 691 2347 639 2423
Q 588 2500 491 2517
Q 394 2534 191 2534
L 191 2759
L 1159 2828
L 1159 763
Q 1159 513 1195 373
Q 1231 234 1348 165
Q 1466 97 1722 97
Q 2066 97 2269 384
Q 2472 672 2472 1038
L 2472 2175
Q 2472 2347 2419 2423
Q 2366 2500 2270 2517
Q 2175 2534 1972 2534
L 1972 2759
L 2938 2828
L 2938 581
Q 2938 413 2989 336
Q 3041 259 3137 242
Q 3234 225 3438 225
L 3438 0
L 2491 -72
L 2491 469
Q 2372 228 2159 78
Q 1947 -72 1691 -72
Q 1231 -72 961 123
Q 691 319 691 763
z
" transform="scale(0.015625)"/>
       <path id="Cmr10-6e" d="M 191 0
L 191 225
Q 409 225 550 259
Q 691 294 691 428
L 691 2175
Q 691 2347 639 2423
Q 588 2500 491 2517
Q 394 2534 191 2534
L 191 2759
L 1119 2828
L 1119 2203
Q 1247 2478 1498 2653
Q 1750 2828 2047 2828
Q 2491 2828 2714 2615
Q 2938 2403 2938 1966
L 2938 428
Q 2938 294 3078 259
Q 3219 225 3438 225
L 3438 0
L 1972 0
L 1972 225
Q 2191 225 2331 259
Q 2472 294 2472 428
L 2472 1947
Q 2472 2259 2381 2461
Q 2291 2663 2009 2663
Q 1638 2663 1398 2366
Q 1159 2069 1159 1691
L 1159 428
Q 1159 294 1300 259
Q 1441 225 1656 225
L 1656 0
L 191 0
z
" transform="scale(0.015625)"/>
       <path id="Cmr10-64" d="M 1563 -72
Q 1184 -72 871 133
Q 559 338 386 672
Q 213 1006 213 1381
Q 213 1769 402 2101
Q 591 2434 916 2631
Q 1241 2828 1631 2828
Q 1866 2828 2075 2729
Q 2284 2631 2438 2456
L 2438 3788
Q 2438 3959 2386 4036
Q 2334 4113 2239 4130
Q 2144 4147 1941 4147
L 1941 4372
L 2888 4441
L 2888 581
Q 2888 413 2939 336
Q 2991 259 3086 242
Q 3181 225 3384 225
L 3384 0
L 2419 -72
L 2419 331
Q 2253 141 2025 34
Q 1797 -72 1563 -72
z
M 909 556
Q 1019 347 1201 222
Q 1384 97 1600 97
Q 1866 97 2087 250
Q 2309 403 2419 647
L 2419 2181
Q 2344 2322 2230 2433
Q 2116 2544 1973 2603
Q 1831 2663 1672 2663
Q 1338 2663 1134 2473
Q 931 2284 850 1990
Q 769 1697 769 1375
Q 769 1119 795 928
Q 822 738 909 556
z
" transform="scale(0.015625)"/>
       <path id="Cmr10-66" d="M 206 0
L 206 225
Q 422 225 562 259
Q 703 294 703 428
L 703 2534
L 213 2534
L 213 2759
L 703 2759
L 703 3525
Q 703 3731 789 3911
Q 875 4091 1020 4225
Q 1166 4359 1355 4436
Q 1544 4513 1747 4513
Q 1963 4513 2136 4384
Q 2309 4256 2309 4044
Q 2309 3922 2226 3839
Q 2144 3756 2022 3756
Q 1900 3756 1814 3839
Q 1728 3922 1728 4044
Q 1728 4244 1900 4313
Q 1797 4347 1716 4347
Q 1528 4347 1395 4214
Q 1263 4081 1197 3890
Q 1131 3700 1131 3513
L 1131 2759
L 1869 2759
L 1869 2534
L 1153 2534
L 1153 428
Q 1153 297 1340 261
Q 1528 225 1772 225
L 1772 0
L 206 0
z
" transform="scale(0.015625)"/>
       <path id="Cmr10-6c" d="M 197 0
L 197 225
Q 416 225 556 259
Q 697 294 697 428
L 697 3788
Q 697 3959 645 4036
Q 594 4113 497 4130
Q 400 4147 197 4147
L 197 4372
L 1147 4441
L 1147 428
Q 1147 294 1287 259
Q 1428 225 1644 225
L 1644 0
L 197 0
z
" transform="scale(0.015625)"/>
       <path id="Cmr10-78" d="M 78 0
L 78 225
Q 322 225 537 320
Q 753 416 903 603
L 1484 1344
L 728 2328
Q 616 2469 483 2501
Q 350 2534 109 2534
L 109 2759
L 1441 2759
L 1441 2534
Q 1356 2534 1282 2496
Q 1209 2459 1209 2388
Q 1209 2363 1228 2328
L 1741 1663
L 2125 2156
Q 2203 2250 2203 2344
Q 2203 2422 2151 2478
Q 2100 2534 2016 2534
L 2016 2759
L 3194 2759
L 3194 2534
Q 2947 2534 2730 2439
Q 2513 2344 2363 2156
L 1856 1509
L 2675 428
Q 2797 288 2928 256
Q 3059 225 3303 225
L 3303 0
L 1972 0
L 1972 225
Q 2050 225 2122 262
Q 2194 300 2194 372
Q 2194 400 2175 428
L 1600 1191
L 1141 603
Q 1069 522 1069 416
Q 1069 338 1122 281
Q 1175 225 1247 225
L 1247 0
L 78 0
z
" transform="scale(0.015625)"/>
      </defs>
      <use xlink:href="#Cmr10-53"/>
      <use xlink:href="#Cmr10-41" x="55.517578"/>
      <use xlink:href="#Cmr10-50" x="130.517578"/>
      <use xlink:href="#Cmr10-20" x="198.535156"/>
      <use xlink:href="#Cmr10-62" x="231.835938"/>
      <use xlink:href="#Cmr10-61" x="287.353516"/>
      <use xlink:href="#Cmr10-63" x="337.353516"/>
      <use xlink:href="#Cmr10-6b" x="381.738281"/>
      <use xlink:href="#Cmr10-67" x="434.423828"/>
      <use xlink:href="#Cmr10-72" x="484.423828"/>
      <use xlink:href="#Cmr10-6f" x="523.535156"/>
      <use xlink:href="#Cmr10-75" x="573.535156"/>
      <use xlink:href="#Cmr10-6e" x="629.052734"/>
      <use xlink:href="#Cmr10-64" x="684.570312"/>
      <use xlink:href="#Cmr10-20" x="740.087891"/>
      <use xlink:href="#Cmr10-66" x="773.388672"/>
      <use xlink:href="#Cmr10-6c" x="803.90625"/>
      <use xlink:href="#Cmr10-75" x="831.591797"/>
      <use xlink:href="#Cmr10-78" x="887.109375"/>
     </g>
    </g>
   </g>
   <g id="matplotlib.axis_2">
    <g id="ytick_1">
     <g id="line2d_45">
      <defs>
       <path id="m1fef2cc982" d="M 0 0
L 3 0
" style="stroke: #000000; stroke-width: 0.5"/>
      </defs>
      <g>
       <use xlink:href="#m1fef2cc982" x="47.782813" y="267.406875" style="stroke: #000000; stroke-width: 0.5"/>
      </g>
     </g>
     <g id="line2d_46">
      <defs>
       <path id="mbdeb2ee87a" d="M 0 0
L -3 0
" style="stroke: #000000; stroke-width: 0.5"/>
      </defs>
      <g>
       <use xlink:href="#mbdeb2ee87a" x="382.582812" y="267.406875" style="stroke: #000000; stroke-width: 0.5"/>
      </g>
     </g>
     <g id="text_7">
      <!-- $\mathdefault{0.0000}$ -->
      <g transform="translate(16.482813 270.876406) scale(0.1 -0.1)">
       <defs>
        <path id="Cmr10-2e" d="M 538 353
Q 538 497 644 600
Q 750 703 891 703
Q 978 703 1062 656
Q 1147 609 1194 525
Q 1241 441 1241 353
Q 1241 213 1137 106
Q 1034 0 891 0
Q 750 0 644 106
Q 538 213 538 353
z
" transform="scale(0.015625)"/>
       </defs>
       <use xlink:href="#Cmr10-30" transform="translate(0 0.390625)"/>
       <use xlink:href="#Cmr10-2e" transform="translate(50 0.390625)"/>
       <use xlink:href="#Cmr10-30" transform="translate(77.685547 0.390625)"/>
       <use xlink:href="#Cmr10-30" transform="translate(127.685547 0.390625)"/>
       <use xlink:href="#Cmr10-30" transform="translate(177.685547 0.390625)"/>
       <use xlink:href="#Cmr10-30" transform="translate(227.685547 0.390625)"/>
      </g>
     </g>
    </g>
    <g id="ytick_2">
     <g id="line2d_47">
      <g>
       <use xlink:href="#m1fef2cc982" x="47.782813" y="239.120905" style="stroke: #000000; stroke-width: 0.5"/>
      </g>
     </g>
     <g id="line2d_48">
      <g>
       <use xlink:href="#mbdeb2ee87a" x="382.582812" y="239.120905" style="stroke: #000000; stroke-width: 0.5"/>
      </g>
     </g>
     <g id="text_8">
      <!-- $\mathdefault{0.0005}$ -->
      <g transform="translate(16.482813 242.590436) scale(0.1 -0.1)">
       <defs>
        <path id="Cmr10-35" d="M 556 728
Q 622 541 758 387
Q 894 234 1080 148
Q 1266 63 1466 63
Q 1928 63 2103 422
Q 2278 781 2278 1294
Q 2278 1516 2270 1667
Q 2263 1819 2228 1959
Q 2169 2184 2020 2353
Q 1872 2522 1656 2522
Q 1441 2522 1286 2456
Q 1131 2391 1034 2303
Q 938 2216 863 2119
Q 788 2022 769 2016
L 697 2016
Q 681 2016 657 2036
Q 634 2056 634 2075
L 634 4213
Q 634 4228 654 4245
Q 675 4263 697 4263
L 716 4263
Q 1147 4056 1631 4056
Q 2106 4056 2547 4263
L 2566 4263
Q 2588 4263 2606 4247
Q 2625 4231 2625 4213
L 2625 4153
Q 2625 4122 2613 4122
Q 2394 3831 2064 3668
Q 1734 3506 1381 3506
Q 1125 3506 856 3578
L 856 2369
Q 1069 2541 1236 2614
Q 1403 2688 1663 2688
Q 2016 2688 2295 2484
Q 2575 2281 2725 1954
Q 2875 1628 2875 1288
Q 2875 903 2686 575
Q 2497 247 2172 53
Q 1847 -141 1466 -141
Q 1150 -141 886 21
Q 622 184 470 459
Q 319 734 319 1044
Q 319 1188 412 1278
Q 506 1369 647 1369
Q 788 1369 883 1276
Q 978 1184 978 1044
Q 978 906 883 811
Q 788 716 647 716
Q 625 716 597 720
Q 569 725 556 728
z
" transform="scale(0.015625)"/>
       </defs>
       <use xlink:href="#Cmr10-30" transform="translate(0 0.390625)"/>
       <use xlink:href="#Cmr10-2e" transform="translate(50 0.390625)"/>
       <use xlink:href="#Cmr10-30" transform="translate(77.685547 0.390625)"/>
       <use xlink:href="#Cmr10-30" transform="translate(127.685547 0.390625)"/>
       <use xlink:href="#Cmr10-30" transform="translate(177.685547 0.390625)"/>
       <use xlink:href="#Cmr10-35" transform="translate(227.685547 0.390625)"/>
      </g>
     </g>
    </g>
    <g id="ytick_3">
     <g id="line2d_49">
      <g>
       <use xlink:href="#m1fef2cc982" x="47.782813" y="210.834934" style="stroke: #000000; stroke-width: 0.5"/>
      </g>
     </g>
     <g id="line2d_50">
      <g>
       <use xlink:href="#mbdeb2ee87a" x="382.582812" y="210.834934" style="stroke: #000000; stroke-width: 0.5"/>
      </g>
     </g>
     <g id="text_9">
      <!-- $\mathdefault{0.0010}$ -->
      <g transform="translate(16.482813 214.304466) scale(0.1 -0.1)">
       <use xlink:href="#Cmr10-30" transform="translate(0 0.390625)"/>
       <use xlink:href="#Cmr10-2e" transform="translate(50 0.390625)"/>
       <use xlink:href="#Cmr10-30" transform="translate(77.685547 0.390625)"/>
       <use xlink:href="#Cmr10-30" transform="translate(127.685547 0.390625)"/>
       <use xlink:href="#Cmr10-31" transform="translate(177.685547 0.390625)"/>
       <use xlink:href="#Cmr10-30" transform="translate(227.685547 0.390625)"/>
      </g>
     </g>
    </g>
    <g id="ytick_4">
     <g id="line2d_51">
      <g>
       <use xlink:href="#m1fef2cc982" x="47.782813" y="182.548964" style="stroke: #000000; stroke-width: 0.5"/>
      </g>
     </g>
     <g id="line2d_52">
      <g>
       <use xlink:href="#mbdeb2ee87a" x="382.582812" y="182.548964" style="stroke: #000000; stroke-width: 0.5"/>
      </g>
     </g>
     <g id="text_10">
      <!-- $\mathdefault{0.0015}$ -->
      <g transform="translate(16.482813 186.018495) scale(0.1 -0.1)">
       <use xlink:href="#Cmr10-30" transform="translate(0 0.390625)"/>
       <use xlink:href="#Cmr10-2e" transform="translate(50 0.390625)"/>
       <use xlink:href="#Cmr10-30" transform="translate(77.685547 0.390625)"/>
       <use xlink:href="#Cmr10-30" transform="translate(127.685547 0.390625)"/>
       <use xlink:href="#Cmr10-31" transform="translate(177.685547 0.390625)"/>
       <use xlink:href="#Cmr10-35" transform="translate(227.685547 0.390625)"/>
      </g>
     </g>
    </g>
    <g id="ytick_5">
     <g id="line2d_53">
      <g>
       <use xlink:href="#m1fef2cc982" x="47.782813" y="154.262994" style="stroke: #000000; stroke-width: 0.5"/>
      </g>
     </g>
     <g id="line2d_54">
      <g>
       <use xlink:href="#mbdeb2ee87a" x="382.582812" y="154.262994" style="stroke: #000000; stroke-width: 0.5"/>
      </g>
     </g>
     <g id="text_11">
      <!-- $\mathdefault{0.0020}$ -->
      <g transform="translate(16.482813 157.732525) scale(0.1 -0.1)">
       <use xlink:href="#Cmr10-30" transform="translate(0 0.390625)"/>
       <use xlink:href="#Cmr10-2e" transform="translate(50 0.390625)"/>
       <use xlink:href="#Cmr10-30" transform="translate(77.685547 0.390625)"/>
       <use xlink:href="#Cmr10-30" transform="translate(127.685547 0.390625)"/>
       <use xlink:href="#Cmr10-32" transform="translate(177.685547 0.390625)"/>
       <use xlink:href="#Cmr10-30" transform="translate(227.685547 0.390625)"/>
      </g>
     </g>
    </g>
    <g id="ytick_6">
     <g id="line2d_55">
      <g>
       <use xlink:href="#m1fef2cc982" x="47.782813" y="125.977023" style="stroke: #000000; stroke-width: 0.5"/>
      </g>
     </g>
     <g id="line2d_56">
      <g>
       <use xlink:href="#mbdeb2ee87a" x="382.582812" y="125.977023" style="stroke: #000000; stroke-width: 0.5"/>
      </g>
     </g>
     <g id="text_12">
      <!-- $\mathdefault{0.0025}$ -->
      <g transform="translate(16.482813 129.446555) scale(0.1 -0.1)">
       <use xlink:href="#Cmr10-30" transform="translate(0 0.390625)"/>
       <use xlink:href="#Cmr10-2e" transform="translate(50 0.390625)"/>
       <use xlink:href="#Cmr10-30" transform="translate(77.685547 0.390625)"/>
       <use xlink:href="#Cmr10-30" transform="translate(127.685547 0.390625)"/>
       <use xlink:href="#Cmr10-32" transform="translate(177.685547 0.390625)"/>
       <use xlink:href="#Cmr10-35" transform="translate(227.685547 0.390625)"/>
      </g>
     </g>
    </g>
    <g id="ytick_7">
     <g id="line2d_57">
      <g>
       <use xlink:href="#m1fef2cc982" x="47.782813" y="97.691053" style="stroke: #000000; stroke-width: 0.5"/>
      </g>
     </g>
     <g id="line2d_58">
      <g>
       <use xlink:href="#mbdeb2ee87a" x="382.582812" y="97.691053" style="stroke: #000000; stroke-width: 0.5"/>
      </g>
     </g>
     <g id="text_13">
      <!-- $\mathdefault{0.0030}$ -->
      <g transform="translate(16.482813 101.160584) scale(0.1 -0.1)">
       <defs>
        <path id="Cmr10-33" d="M 609 494
Q 759 275 1012 169
Q 1266 63 1556 63
Q 1928 63 2084 380
Q 2241 697 2241 1100
Q 2241 1281 2208 1462
Q 2175 1644 2097 1800
Q 2019 1956 1883 2050
Q 1747 2144 1550 2144
L 1125 2144
Q 1069 2144 1069 2203
L 1069 2259
Q 1069 2309 1125 2309
L 1478 2338
Q 1703 2338 1851 2506
Q 2000 2675 2069 2917
Q 2138 3159 2138 3378
Q 2138 3684 1994 3881
Q 1850 4078 1556 4078
Q 1313 4078 1091 3986
Q 869 3894 738 3706
Q 750 3709 759 3711
Q 769 3713 781 3713
Q 925 3713 1022 3613
Q 1119 3513 1119 3372
Q 1119 3234 1022 3134
Q 925 3034 781 3034
Q 641 3034 541 3134
Q 441 3234 441 3372
Q 441 3647 606 3850
Q 772 4053 1033 4158
Q 1294 4263 1556 4263
Q 1750 4263 1965 4205
Q 2181 4147 2356 4039
Q 2531 3931 2642 3762
Q 2753 3594 2753 3378
Q 2753 3109 2633 2881
Q 2513 2653 2303 2487
Q 2094 2322 1844 2241
Q 2122 2188 2372 2031
Q 2622 1875 2773 1631
Q 2925 1388 2925 1106
Q 2925 753 2731 467
Q 2538 181 2222 20
Q 1906 -141 1556 -141
Q 1256 -141 954 -26
Q 653 88 461 316
Q 269 544 269 863
Q 269 1022 375 1128
Q 481 1234 641 1234
Q 744 1234 830 1186
Q 916 1138 964 1050
Q 1013 963 1013 863
Q 1013 706 903 600
Q 794 494 641 494
L 609 494
z
" transform="scale(0.015625)"/>
       </defs>
       <use xlink:href="#Cmr10-30" transform="translate(0 0.390625)"/>
       <use xlink:href="#Cmr10-2e" transform="translate(50 0.390625)"/>
       <use xlink:href="#Cmr10-30" transform="translate(77.685547 0.390625)"/>
       <use xlink:href="#Cmr10-30" transform="translate(127.685547 0.390625)"/>
       <use xlink:href="#Cmr10-33" transform="translate(177.685547 0.390625)"/>
       <use xlink:href="#Cmr10-30" transform="translate(227.685547 0.390625)"/>
      </g>
     </g>
    </g>
    <g id="ytick_8">
     <g id="line2d_59">
      <g>
       <use xlink:href="#m1fef2cc982" x="47.782813" y="69.405083" style="stroke: #000000; stroke-width: 0.5"/>
      </g>
     </g>
     <g id="line2d_60">
      <g>
       <use xlink:href="#mbdeb2ee87a" x="382.582812" y="69.405083" style="stroke: #000000; stroke-width: 0.5"/>
      </g>
     </g>
     <g id="text_14">
      <!-- $\mathdefault{0.0035}$ -->
      <g transform="translate(16.482813 72.874614) scale(0.1 -0.1)">
       <use xlink:href="#Cmr10-30" transform="translate(0 0.390625)"/>
       <use xlink:href="#Cmr10-2e" transform="translate(50 0.390625)"/>
       <use xlink:href="#Cmr10-30" transform="translate(77.685547 0.390625)"/>
       <use xlink:href="#Cmr10-30" transform="translate(127.685547 0.390625)"/>
       <use xlink:href="#Cmr10-33" transform="translate(177.685547 0.390625)"/>
       <use xlink:href="#Cmr10-35" transform="translate(227.685547 0.390625)"/>
      </g>
     </g>
    </g>
    <g id="ytick_9">
     <g id="line2d_61">
      <g>
       <use xlink:href="#m1fef2cc982" x="47.782813" y="41.119112" style="stroke: #000000; stroke-width: 0.5"/>
      </g>
     </g>
     <g id="line2d_62">
      <g>
       <use xlink:href="#mbdeb2ee87a" x="382.582812" y="41.119112" style="stroke: #000000; stroke-width: 0.5"/>
      </g>
     </g>
     <g id="text_15">
      <!-- $\mathdefault{0.0040}$ -->
      <g transform="translate(16.482813 44.588644) scale(0.1 -0.1)">
       <use xlink:href="#Cmr10-30" transform="translate(0 0.390625)"/>
       <use xlink:href="#Cmr10-2e" transform="translate(50 0.390625)"/>
       <use xlink:href="#Cmr10-30" transform="translate(77.685547 0.390625)"/>
       <use xlink:href="#Cmr10-30" transform="translate(127.685547 0.390625)"/>
       <use xlink:href="#Cmr10-34" transform="translate(177.685547 0.390625)"/>
       <use xlink:href="#Cmr10-30" transform="translate(227.685547 0.390625)"/>
      </g>
     </g>
    </g>
    <g id="ytick_10">
     <g id="line2d_63">
      <defs>
       <path id="m26f87bae1d" d="M 0 0
L 1.5 0
" style="stroke: #000000; stroke-width: 0.5"/>
      </defs>
      <g>
       <use xlink:href="#m26f87bae1d" x="47.782813" y="261.749681" style="stroke: #000000; stroke-width: 0.5"/>
      </g>
     </g>
     <g id="line2d_64">
      <defs>
       <path id="m7ac9e5c35d" d="M 0 0
L -1.5 0
" style="stroke: #000000; stroke-width: 0.5"/>
      </defs>
      <g>
       <use xlink:href="#m7ac9e5c35d" x="382.582812" y="261.749681" style="stroke: #000000; stroke-width: 0.5"/>
      </g>
     </g>
    </g>
    <g id="ytick_11">
     <g id="line2d_65">
      <g>
       <use xlink:href="#m26f87bae1d" x="47.782813" y="256.092487" style="stroke: #000000; stroke-width: 0.5"/>
      </g>
     </g>
     <g id="line2d_66">
      <g>
       <use xlink:href="#m7ac9e5c35d" x="382.582812" y="256.092487" style="stroke: #000000; stroke-width: 0.5"/>
      </g>
     </g>
    </g>
    <g id="ytick_12">
     <g id="line2d_67">
      <g>
       <use xlink:href="#m26f87bae1d" x="47.782813" y="250.435293" style="stroke: #000000; stroke-width: 0.5"/>
      </g>
     </g>
     <g id="line2d_68">
      <g>
       <use xlink:href="#m7ac9e5c35d" x="382.582812" y="250.435293" style="stroke: #000000; stroke-width: 0.5"/>
      </g>
     </g>
    </g>
    <g id="ytick_13">
     <g id="line2d_69">
      <g>
       <use xlink:href="#m26f87bae1d" x="47.782813" y="244.778099" style="stroke: #000000; stroke-width: 0.5"/>
      </g>
     </g>
     <g id="line2d_70">
      <g>
       <use xlink:href="#m7ac9e5c35d" x="382.582812" y="244.778099" style="stroke: #000000; stroke-width: 0.5"/>
      </g>
     </g>
    </g>
    <g id="ytick_14">
     <g id="line2d_71">
      <g>
       <use xlink:href="#m26f87bae1d" x="47.782813" y="233.463711" style="stroke: #000000; stroke-width: 0.5"/>
      </g>
     </g>
     <g id="line2d_72">
      <g>
       <use xlink:href="#m7ac9e5c35d" x="382.582812" y="233.463711" style="stroke: #000000; stroke-width: 0.5"/>
      </g>
     </g>
    </g>
    <g id="ytick_15">
     <g id="line2d_73">
      <g>
       <use xlink:href="#m26f87bae1d" x="47.782813" y="227.806517" style="stroke: #000000; stroke-width: 0.5"/>
      </g>
     </g>
     <g id="line2d_74">
      <g>
       <use xlink:href="#m7ac9e5c35d" x="382.582812" y="227.806517" style="stroke: #000000; stroke-width: 0.5"/>
      </g>
     </g>
    </g>
    <g id="ytick_16">
     <g id="line2d_75">
      <g>
       <use xlink:href="#m26f87bae1d" x="47.782813" y="222.149322" style="stroke: #000000; stroke-width: 0.5"/>
      </g>
     </g>
     <g id="line2d_76">
      <g>
       <use xlink:href="#m7ac9e5c35d" x="382.582812" y="222.149322" style="stroke: #000000; stroke-width: 0.5"/>
      </g>
     </g>
    </g>
    <g id="ytick_17">
     <g id="line2d_77">
      <g>
       <use xlink:href="#m26f87bae1d" x="47.782813" y="216.492128" style="stroke: #000000; stroke-width: 0.5"/>
      </g>
     </g>
     <g id="line2d_78">
      <g>
       <use xlink:href="#m7ac9e5c35d" x="382.582812" y="216.492128" style="stroke: #000000; stroke-width: 0.5"/>
      </g>
     </g>
    </g>
    <g id="ytick_18">
     <g id="line2d_79">
      <g>
       <use xlink:href="#m26f87bae1d" x="47.782813" y="205.17774" style="stroke: #000000; stroke-width: 0.5"/>
      </g>
     </g>
     <g id="line2d_80">
      <g>
       <use xlink:href="#m7ac9e5c35d" x="382.582812" y="205.17774" style="stroke: #000000; stroke-width: 0.5"/>
      </g>
     </g>
    </g>
    <g id="ytick_19">
     <g id="line2d_81">
      <g>
       <use xlink:href="#m26f87bae1d" x="47.782813" y="199.520546" style="stroke: #000000; stroke-width: 0.5"/>
      </g>
     </g>
     <g id="line2d_82">
      <g>
       <use xlink:href="#m7ac9e5c35d" x="382.582812" y="199.520546" style="stroke: #000000; stroke-width: 0.5"/>
      </g>
     </g>
    </g>
    <g id="ytick_20">
     <g id="line2d_83">
      <g>
       <use xlink:href="#m26f87bae1d" x="47.782813" y="193.863352" style="stroke: #000000; stroke-width: 0.5"/>
      </g>
     </g>
     <g id="line2d_84">
      <g>
       <use xlink:href="#m7ac9e5c35d" x="382.582812" y="193.863352" style="stroke: #000000; stroke-width: 0.5"/>
      </g>
     </g>
    </g>
    <g id="ytick_21">
     <g id="line2d_85">
      <g>
       <use xlink:href="#m26f87bae1d" x="47.782813" y="188.206158" style="stroke: #000000; stroke-width: 0.5"/>
      </g>
     </g>
     <g id="line2d_86">
      <g>
       <use xlink:href="#m7ac9e5c35d" x="382.582812" y="188.206158" style="stroke: #000000; stroke-width: 0.5"/>
      </g>
     </g>
    </g>
    <g id="ytick_22">
     <g id="line2d_87">
      <g>
       <use xlink:href="#m26f87bae1d" x="47.782813" y="176.89177" style="stroke: #000000; stroke-width: 0.5"/>
      </g>
     </g>
     <g id="line2d_88">
      <g>
       <use xlink:href="#m7ac9e5c35d" x="382.582812" y="176.89177" style="stroke: #000000; stroke-width: 0.5"/>
      </g>
     </g>
    </g>
    <g id="ytick_23">
     <g id="line2d_89">
      <g>
       <use xlink:href="#m26f87bae1d" x="47.782813" y="171.234576" style="stroke: #000000; stroke-width: 0.5"/>
      </g>
     </g>
     <g id="line2d_90">
      <g>
       <use xlink:href="#m7ac9e5c35d" x="382.582812" y="171.234576" style="stroke: #000000; stroke-width: 0.5"/>
      </g>
     </g>
    </g>
    <g id="ytick_24">
     <g id="line2d_91">
      <g>
       <use xlink:href="#m26f87bae1d" x="47.782813" y="165.577382" style="stroke: #000000; stroke-width: 0.5"/>
      </g>
     </g>
     <g id="line2d_92">
      <g>
       <use xlink:href="#m7ac9e5c35d" x="382.582812" y="165.577382" style="stroke: #000000; stroke-width: 0.5"/>
      </g>
     </g>
    </g>
    <g id="ytick_25">
     <g id="line2d_93">
      <g>
       <use xlink:href="#m26f87bae1d" x="47.782813" y="159.920188" style="stroke: #000000; stroke-width: 0.5"/>
      </g>
     </g>
     <g id="line2d_94">
      <g>
       <use xlink:href="#m7ac9e5c35d" x="382.582812" y="159.920188" style="stroke: #000000; stroke-width: 0.5"/>
      </g>
     </g>
    </g>
    <g id="ytick_26">
     <g id="line2d_95">
      <g>
       <use xlink:href="#m26f87bae1d" x="47.782813" y="148.6058" style="stroke: #000000; stroke-width: 0.5"/>
      </g>
     </g>
     <g id="line2d_96">
      <g>
       <use xlink:href="#m7ac9e5c35d" x="382.582812" y="148.6058" style="stroke: #000000; stroke-width: 0.5"/>
      </g>
     </g>
    </g>
    <g id="ytick_27">
     <g id="line2d_97">
      <g>
       <use xlink:href="#m26f87bae1d" x="47.782813" y="142.948606" style="stroke: #000000; stroke-width: 0.5"/>
      </g>
     </g>
     <g id="line2d_98">
      <g>
       <use xlink:href="#m7ac9e5c35d" x="382.582812" y="142.948606" style="stroke: #000000; stroke-width: 0.5"/>
      </g>
     </g>
    </g>
    <g id="ytick_28">
     <g id="line2d_99">
      <g>
       <use xlink:href="#m26f87bae1d" x="47.782813" y="137.291411" style="stroke: #000000; stroke-width: 0.5"/>
      </g>
     </g>
     <g id="line2d_100">
      <g>
       <use xlink:href="#m7ac9e5c35d" x="382.582812" y="137.291411" style="stroke: #000000; stroke-width: 0.5"/>
      </g>
     </g>
    </g>
    <g id="ytick_29">
     <g id="line2d_101">
      <g>
       <use xlink:href="#m26f87bae1d" x="47.782813" y="131.634217" style="stroke: #000000; stroke-width: 0.5"/>
      </g>
     </g>
     <g id="line2d_102">
      <g>
       <use xlink:href="#m7ac9e5c35d" x="382.582812" y="131.634217" style="stroke: #000000; stroke-width: 0.5"/>
      </g>
     </g>
    </g>
    <g id="ytick_30">
     <g id="line2d_103">
      <g>
       <use xlink:href="#m26f87bae1d" x="47.782813" y="120.319829" style="stroke: #000000; stroke-width: 0.5"/>
      </g>
     </g>
     <g id="line2d_104">
      <g>
       <use xlink:href="#m7ac9e5c35d" x="382.582812" y="120.319829" style="stroke: #000000; stroke-width: 0.5"/>
      </g>
     </g>
    </g>
    <g id="ytick_31">
     <g id="line2d_105">
      <g>
       <use xlink:href="#m26f87bae1d" x="47.782813" y="114.662635" style="stroke: #000000; stroke-width: 0.5"/>
      </g>
     </g>
     <g id="line2d_106">
      <g>
       <use xlink:href="#m7ac9e5c35d" x="382.582812" y="114.662635" style="stroke: #000000; stroke-width: 0.5"/>
      </g>
     </g>
    </g>
    <g id="ytick_32">
     <g id="line2d_107">
      <g>
       <use xlink:href="#m26f87bae1d" x="47.782813" y="109.005441" style="stroke: #000000; stroke-width: 0.5"/>
      </g>
     </g>
     <g id="line2d_108">
      <g>
       <use xlink:href="#m7ac9e5c35d" x="382.582812" y="109.005441" style="stroke: #000000; stroke-width: 0.5"/>
      </g>
     </g>
    </g>
    <g id="ytick_33">
     <g id="line2d_109">
      <g>
       <use xlink:href="#m26f87bae1d" x="47.782813" y="103.348247" style="stroke: #000000; stroke-width: 0.5"/>
      </g>
     </g>
     <g id="line2d_110">
      <g>
       <use xlink:href="#m7ac9e5c35d" x="382.582812" y="103.348247" style="stroke: #000000; stroke-width: 0.5"/>
      </g>
     </g>
    </g>
    <g id="ytick_34">
     <g id="line2d_111">
      <g>
       <use xlink:href="#m26f87bae1d" x="47.782813" y="92.033859" style="stroke: #000000; stroke-width: 0.5"/>
      </g>
     </g>
     <g id="line2d_112">
      <g>
       <use xlink:href="#m7ac9e5c35d" x="382.582812" y="92.033859" style="stroke: #000000; stroke-width: 0.5"/>
      </g>
     </g>
    </g>
    <g id="ytick_35">
     <g id="line2d_113">
      <g>
       <use xlink:href="#m26f87bae1d" x="47.782813" y="86.376665" style="stroke: #000000; stroke-width: 0.5"/>
      </g>
     </g>
     <g id="line2d_114">
      <g>
       <use xlink:href="#m7ac9e5c35d" x="382.582812" y="86.376665" style="stroke: #000000; stroke-width: 0.5"/>
      </g>
     </g>
    </g>
    <g id="ytick_36">
     <g id="line2d_115">
      <g>
       <use xlink:href="#m26f87bae1d" x="47.782813" y="80.719471" style="stroke: #000000; stroke-width: 0.5"/>
      </g>
     </g>
     <g id="line2d_116">
      <g>
       <use xlink:href="#m7ac9e5c35d" x="382.582812" y="80.719471" style="stroke: #000000; stroke-width: 0.5"/>
      </g>
     </g>
    </g>
    <g id="ytick_37">
     <g id="line2d_117">
      <g>
       <use xlink:href="#m26f87bae1d" x="47.782813" y="75.062277" style="stroke: #000000; stroke-width: 0.5"/>
      </g>
     </g>
     <g id="line2d_118">
      <g>
       <use xlink:href="#m7ac9e5c35d" x="382.582812" y="75.062277" style="stroke: #000000; stroke-width: 0.5"/>
      </g>
     </g>
    </g>
    <g id="ytick_38">
     <g id="line2d_119">
      <g>
       <use xlink:href="#m26f87bae1d" x="47.782813" y="63.747889" style="stroke: #000000; stroke-width: 0.5"/>
      </g>
     </g>
     <g id="line2d_120">
      <g>
       <use xlink:href="#m7ac9e5c35d" x="382.582812" y="63.747889" style="stroke: #000000; stroke-width: 0.5"/>
      </g>
     </g>
    </g>
    <g id="ytick_39">
     <g id="line2d_121">
      <g>
       <use xlink:href="#m26f87bae1d" x="47.782813" y="58.090695" style="stroke: #000000; stroke-width: 0.5"/>
      </g>
     </g>
     <g id="line2d_122">
      <g>
       <use xlink:href="#m7ac9e5c35d" x="382.582812" y="58.090695" style="stroke: #000000; stroke-width: 0.5"/>
      </g>
     </g>
    </g>
    <g id="ytick_40">
     <g id="line2d_123">
      <g>
       <use xlink:href="#m26f87bae1d" x="47.782813" y="52.4335" style="stroke: #000000; stroke-width: 0.5"/>
      </g>
     </g>
     <g id="line2d_124">
      <g>
       <use xlink:href="#m7ac9e5c35d" x="382.582812" y="52.4335" style="stroke: #000000; stroke-width: 0.5"/>
      </g>
     </g>
    </g>
    <g id="ytick_41">
     <g id="line2d_125">
      <g>
       <use xlink:href="#m26f87bae1d" x="47.782813" y="46.776306" style="stroke: #000000; stroke-width: 0.5"/>
      </g>
     </g>
     <g id="line2d_126">
      <g>
       <use xlink:href="#m7ac9e5c35d" x="382.582812" y="46.776306" style="stroke: #000000; stroke-width: 0.5"/>
      </g>
     </g>
    </g>
    <g id="ytick_42">
     <g id="line2d_127">
      <g>
       <use xlink:href="#m26f87bae1d" x="47.782813" y="35.461918" style="stroke: #000000; stroke-width: 0.5"/>
      </g>
     </g>
     <g id="line2d_128">
      <g>
       <use xlink:href="#m7ac9e5c35d" x="382.582812" y="35.461918" style="stroke: #000000; stroke-width: 0.5"/>
      </g>
     </g>
    </g>
    <g id="ytick_43">
     <g id="line2d_129">
      <g>
       <use xlink:href="#m26f87bae1d" x="47.782813" y="29.804724" style="stroke: #000000; stroke-width: 0.5"/>
      </g>
     </g>
     <g id="line2d_130">
      <g>
       <use xlink:href="#m7ac9e5c35d" x="382.582812" y="29.804724" style="stroke: #000000; stroke-width: 0.5"/>
      </g>
     </g>
    </g>
    <g id="ytick_44">
     <g id="line2d_131">
      <g>
       <use xlink:href="#m26f87bae1d" x="47.782813" y="24.14753" style="stroke: #000000; stroke-width: 0.5"/>
      </g>
     </g>
     <g id="line2d_132">
      <g>
       <use xlink:href="#m7ac9e5c35d" x="382.582812" y="24.14753" style="stroke: #000000; stroke-width: 0.5"/>
      </g>
     </g>
    </g>
    <g id="ytick_45">
     <g id="line2d_133">
      <g>
       <use xlink:href="#m26f87bae1d" x="47.782813" y="18.490336" style="stroke: #000000; stroke-width: 0.5"/>
      </g>
     </g>
     <g id="line2d_134">
      <g>
       <use xlink:href="#m7ac9e5c35d" x="382.582812" y="18.490336" style="stroke: #000000; stroke-width: 0.5"/>
      </g>
     </g>
    </g>
    <g id="text_16">
     <!-- Density -->
     <g transform="translate(10.43125 159.4075) rotate(-90) scale(0.1 -0.1)">
      <defs>
       <path id="Cmr10-44" d="M 213 0
L 213 225
Q 872 225 872 428
L 872 3944
Q 872 4147 213 4147
L 213 4372
L 2572 4372
Q 3009 4372 3371 4183
Q 3734 3994 3990 3678
Q 4247 3363 4386 2963
Q 4525 2563 4525 2144
Q 4525 1738 4384 1355
Q 4244 972 3980 664
Q 3716 356 3355 178
Q 2994 0 2572 0
L 213 0
z
M 1447 428
Q 1447 291 1525 258
Q 1603 225 1772 225
L 2406 225
Q 2734 225 3029 367
Q 3325 509 3519 763
Q 3722 1031 3790 1364
Q 3859 1697 3859 2144
Q 3859 2609 3790 2959
Q 3722 3309 3519 3584
Q 3328 3856 3034 4001
Q 2741 4147 2406 4147
L 1772 4147
Q 1656 4147 1592 4137
Q 1528 4128 1487 4083
Q 1447 4038 1447 3944
L 1447 428
z
" transform="scale(0.015625)"/>
       <path id="Cmr10-65" d="M 1594 -72
Q 1203 -72 876 133
Q 550 338 364 680
Q 178 1022 178 1403
Q 178 1778 348 2115
Q 519 2453 823 2661
Q 1128 2869 1503 2869
Q 1797 2869 2014 2770
Q 2231 2672 2372 2497
Q 2513 2322 2584 2084
Q 2656 1847 2656 1563
Q 2656 1478 2591 1478
L 738 1478
L 738 1409
Q 738 878 952 497
Q 1166 116 1650 116
Q 1847 116 2014 203
Q 2181 291 2304 447
Q 2428 603 2472 781
Q 2478 803 2495 820
Q 2513 838 2534 838
L 2591 838
Q 2656 838 2656 756
Q 2566 394 2266 161
Q 1966 -72 1594 -72
z
M 744 1638
L 2203 1638
Q 2203 1878 2136 2125
Q 2069 2372 1912 2536
Q 1756 2700 1503 2700
Q 1141 2700 942 2361
Q 744 2022 744 1638
z
" transform="scale(0.015625)"/>
       <path id="Cmr10-73" d="M 213 -19
L 213 1025
Q 213 1075 269 1075
L 347 1075
Q 384 1075 397 1025
Q 575 97 1259 97
Q 1563 97 1767 234
Q 1972 372 1972 659
Q 1972 866 1812 1011
Q 1653 1156 1434 1209
L 1006 1294
Q 791 1341 614 1437
Q 438 1534 325 1695
Q 213 1856 213 2069
Q 213 2350 361 2529
Q 509 2709 746 2789
Q 984 2869 1259 2869
Q 1588 2869 1831 2694
L 2016 2853
Q 2016 2869 2047 2869
L 2094 2869
Q 2113 2869 2128 2851
Q 2144 2834 2144 2816
L 2144 1978
Q 2144 1919 2094 1919
L 2016 1919
Q 1959 1919 1959 1978
Q 1959 2313 1773 2516
Q 1588 2719 1253 2719
Q 966 2719 755 2612
Q 544 2506 544 2247
Q 544 2069 695 1955
Q 847 1841 1050 1791
L 1484 1709
Q 1703 1659 1892 1540
Q 2081 1422 2192 1240
Q 2303 1059 2303 831
Q 2303 600 2223 429
Q 2144 259 2001 146
Q 1859 34 1665 -19
Q 1472 -72 1259 -72
Q 859 -72 575 197
L 341 -56
Q 341 -72 306 -72
L 269 -72
Q 213 -72 213 -19
z
" transform="scale(0.015625)"/>
       <path id="Cmr10-69" d="M 197 0
L 197 225
Q 416 225 556 259
Q 697 294 697 428
L 697 2175
Q 697 2422 601 2478
Q 506 2534 225 2534
L 225 2759
L 1147 2828
L 1147 428
Q 1147 294 1269 259
Q 1391 225 1594 225
L 1594 0
L 197 0
z
M 469 3928
Q 469 4069 575 4175
Q 681 4281 819 4281
Q 909 4281 993 4234
Q 1078 4188 1125 4103
Q 1172 4019 1172 3928
Q 1172 3791 1065 3684
Q 959 3578 819 3578
Q 681 3578 575 3684
Q 469 3791 469 3928
z
" transform="scale(0.015625)"/>
       <path id="Cmr10-74" d="M 653 769
L 653 2534
L 122 2534
L 122 2700
Q 541 2700 737 3090
Q 934 3481 934 3938
L 1119 3938
L 1119 2759
L 2022 2759
L 2022 2534
L 1119 2534
L 1119 781
Q 1119 516 1208 316
Q 1297 116 1528 116
Q 1747 116 1844 327
Q 1941 538 1941 781
L 1941 1159
L 2125 1159
L 2125 769
Q 2125 569 2051 373
Q 1978 178 1834 53
Q 1691 -72 1484 -72
Q 1100 -72 876 158
Q 653 388 653 769
z
" transform="scale(0.015625)"/>
       <path id="Cmr10-79" d="M 441 -1050
Q 563 -1147 709 -1147
Q 1113 -1147 1369 -538
L 1588 0
L 628 2350
Q 569 2469 447 2501
Q 325 2534 122 2534
L 122 2759
L 1466 2759
L 1466 2534
Q 1113 2534 1113 2381
Q 1113 2356 1119 2344
L 1831 594
L 2472 2169
Q 2491 2219 2491 2278
Q 2491 2356 2448 2414
Q 2406 2472 2339 2503
Q 2272 2534 2188 2534
L 2188 2759
L 3250 2759
L 3250 2534
Q 3053 2534 2904 2443
Q 2756 2353 2675 2175
L 1569 -538
Q 1481 -744 1364 -917
Q 1247 -1091 1078 -1202
Q 909 -1313 709 -1313
Q 475 -1313 298 -1158
Q 122 -1003 122 -775
Q 122 -656 203 -575
Q 284 -494 403 -494
Q 484 -494 548 -530
Q 613 -566 648 -628
Q 684 -691 684 -775
Q 684 -878 615 -959
Q 547 -1041 441 -1050
z
" transform="scale(0.015625)"/>
      </defs>
      <use xlink:href="#Cmr10-44"/>
      <use xlink:href="#Cmr10-65" x="76.318359"/>
      <use xlink:href="#Cmr10-6e" x="120.703125"/>
      <use xlink:href="#Cmr10-73" x="176.220703"/>
      <use xlink:href="#Cmr10-69" x="215.625"/>
      <use xlink:href="#Cmr10-74" x="243.310547"/>
      <use xlink:href="#Cmr10-79" x="282.128906"/>
     </g>
    </g>
   </g>
   <g id="patch_33">
    <path d="M 47.782813 267.406875
L 47.782813 17.926875
" style="fill: none; stroke: #000000; stroke-width: 0.5; stroke-linejoin: miter; stroke-linecap: square"/>
   </g>
   <g id="patch_34">
    <path d="M 382.582812 267.406875
L 382.582812 17.926875
" style="fill: none; stroke: #000000; stroke-width: 0.5; stroke-linejoin: miter; stroke-linecap: square"/>
   </g>
   <g id="patch_35">
    <path d="M 47.782813 267.406875
L 382.582812 267.406875
" style="fill: none; stroke: #000000; stroke-width: 0.5; stroke-linejoin: miter; stroke-linecap: square"/>
   </g>
   <g id="patch_36">
    <path d="M 47.782813 17.926875
L 382.582812 17.926875
" style="fill: none; stroke: #000000; stroke-width: 0.5; stroke-linejoin: miter; stroke-linecap: square"/>
   </g>
   <g id="text_17">
    <!-- No finite Straylight2-flagged background samples -->
    <g transform="translate(203.248062 36.042125) scale(0.08 -0.08)">
     <defs>
      <path id="Cmr10-4e" d="M 197 0
L 197 225
Q 856 225 856 603
L 856 4109
Q 647 4147 197 4147
L 197 4372
L 1422 4372
Q 1453 4372 1466 4347
L 3731 1013
L 3731 3769
Q 3731 4147 3072 4147
L 3072 4372
L 4594 4372
L 4594 4147
Q 3938 4147 3938 3769
L 3938 56
Q 3938 38 3913 19
Q 3888 0 3872 0
L 3794 0
Q 3763 0 3750 25
L 1063 3981
L 1063 603
Q 1063 225 1722 225
L 1722 0
L 197 0
z
" transform="scale(0.015625)"/>
      <path id="Cmr10-68" d="M 191 0
L 191 225
Q 409 225 550 259
Q 691 294 691 428
L 691 3788
Q 691 3959 639 4036
Q 588 4113 491 4130
Q 394 4147 191 4147
L 191 4372
L 1141 4441
L 1141 2241
Q 1275 2506 1515 2667
Q 1756 2828 2047 2828
Q 2491 2828 2714 2615
Q 2938 2403 2938 1966
L 2938 428
Q 2938 294 3078 259
Q 3219 225 3438 225
L 3438 0
L 1972 0
L 1972 225
Q 2191 225 2331 259
Q 2472 294 2472 428
L 2472 1947
Q 2472 2259 2381 2461
Q 2291 2663 2009 2663
Q 1638 2663 1398 2366
Q 1159 2069 1159 1691
L 1159 428
Q 1159 294 1300 259
Q 1441 225 1656 225
L 1656 0
L 191 0
z
" transform="scale(0.015625)"/>
      <path id="Cmr10-2d" d="M 72 1184
L 72 1581
L 1766 1581
L 1766 1184
L 72 1184
z
" transform="scale(0.015625)"/>
      <path id="Cmr10-6d" d="M 191 0
L 191 225
Q 409 225 550 259
Q 691 294 691 428
L 691 2175
Q 691 2347 639 2423
Q 588 2500 491 2517
Q 394 2534 191 2534
L 191 2759
L 1119 2828
L 1119 2203
Q 1247 2478 1498 2653
Q 1750 2828 2047 2828
Q 2784 2828 2913 2228
Q 3041 2497 3287 2662
Q 3534 2828 3828 2828
Q 4119 2828 4317 2734
Q 4516 2641 4616 2448
Q 4716 2256 4716 1966
L 4716 428
Q 4716 294 4858 259
Q 5000 225 5216 225
L 5216 0
L 3750 0
L 3750 225
Q 3969 225 4109 259
Q 4250 294 4250 428
L 4250 1947
Q 4250 2269 4159 2466
Q 4069 2663 3788 2663
Q 3419 2663 3178 2366
Q 2938 2069 2938 1691
L 2938 428
Q 2938 294 3078 259
Q 3219 225 3438 225
L 3438 0
L 1972 0
L 1972 225
Q 2191 225 2331 259
Q 2472 294 2472 428
L 2472 1947
Q 2472 2259 2381 2461
Q 2291 2663 2009 2663
Q 1638 2663 1398 2366
Q 1159 2069 1159 1691
L 1159 428
Q 1159 294 1300 259
Q 1441 225 1656 225
L 1656 0
L 191 0
z
" transform="scale(0.015625)"/>
      <path id="Cmr10-70" d="M 166 -1241
L 166 -1019
Q 384 -1019 525 -981
Q 666 -944 666 -813
L 666 2272
Q 666 2447 541 2490
Q 416 2534 166 2534
L 166 2759
L 1113 2828
L 1113 2431
Q 1288 2625 1520 2726
Q 1753 2828 2016 2828
Q 2394 2828 2697 2623
Q 3000 2419 3170 2086
Q 3341 1753 3341 1381
Q 3341 994 3152 659
Q 2963 325 2636 126
Q 2309 -72 1919 -72
Q 1453 -72 1131 306
L 1131 -813
Q 1131 -944 1273 -981
Q 1416 -1019 1631 -1019
L 1631 -1241
L 166 -1241
z
M 1131 622
Q 1244 394 1444 245
Q 1644 97 1881 97
Q 2103 97 2273 215
Q 2444 334 2559 534
Q 2675 734 2729 954
Q 2784 1175 2784 1381
Q 2784 1638 2692 1936
Q 2600 2234 2411 2439
Q 2222 2644 1953 2644
Q 1694 2644 1476 2511
Q 1259 2378 1131 2150
L 1131 622
z
" transform="scale(0.015625)"/>
     </defs>
     <use xlink:href="#Cmr10-4e"/>
     <use xlink:href="#Cmr10-6f" x="75"/>
     <use xlink:href="#Cmr10-20" x="125"/>
     <use xlink:href="#Cmr10-66" x="158.300781"/>
     <use xlink:href="#Cmr10-69" x="188.818359"/>
     <use xlink:href="#Cmr10-6e" x="216.503906"/>
     <use xlink:href="#Cmr10-69" x="272.021484"/>
     <use xlink:href="#Cmr10-74" x="299.707031"/>
     <use xlink:href="#Cmr10-65" x="338.525391"/>
     <use xlink:href="#Cmr10-20" x="382.910156"/>
     <use xlink:href="#Cmr10-53" x="416.210938"/>
     <use xlink:href="#Cmr10-74" x="471.728516"/>
     <use xlink:href="#Cmr10-72" x="510.546875"/>
     <use xlink:href="#Cmr10-61" x="549.658203"/>
     <use xlink:href="#Cmr10-79" x="599.658203"/>
     <use xlink:href="#Cmr10-6c" x="652.34375"/>
     <use xlink:href="#Cmr10-69" x="680.029297"/>
     <use xlink:href="#Cmr10-67" x="707.714844"/>
     <use xlink:href="#Cmr10-68" x="757.714844"/>
     <use xlink:href="#Cmr10-74" x="813.232422"/>
     <use xlink:href="#Cmr10-32" x="852.050781"/>
     <use xlink:href="#Cmr10-2d" x="902.050781"/>
     <use xlink:href="#Cmr10-66" x="935.351562"/>
     <use xlink:href="#Cmr10-6c" x="965.869141"/>
     <use xlink:href="#Cmr10-61" x="993.554688"/>
     <use xlink:href="#Cmr10-67" x="1043.554688"/>
     <use xlink:href="#Cmr10-67" x="1093.554688"/>
     <use xlink:href="#Cmr10-65" x="1143.554688"/>
     <use xlink:href="#Cmr10-64" x="1187.939453"/>
     <use xlink:href="#Cmr10-20" x="1243.457031"/>
     <use xlink:href="#Cmr10-62" x="1276.757812"/>
     <use xlink:href="#Cmr10-61" x="1332.275391"/>
     <use xlink:href="#Cmr10-63" x="1382.275391"/>
     <use xlink:href="#Cmr10-6b" x="1426.660156"/>
     <use xlink:href="#Cmr10-67" x="1479.345703"/>
     <use xlink:href="#Cmr10-72" x="1529.345703"/>
     <use xlink:href="#Cmr10-6f" x="1568.457031"/>
     <use xlink:href="#Cmr10-75" x="1618.457031"/>
     <use xlink:href="#Cmr10-6e" x="1673.974609"/>
     <use xlink:href="#Cmr10-64" x="1729.492188"/>
     <use xlink:href="#Cmr10-20" x="1785.009766"/>
     <use xlink:href="#Cmr10-73" x="1818.310547"/>
     <use xlink:href="#Cmr10-61" x="1857.714844"/>
     <use xlink:href="#Cmr10-6d" x="1907.714844"/>
     <use xlink:href="#Cmr10-70" x="1991.015625"/>
     <use xlink:href="#Cmr10-6c" x="2046.533203"/>
     <use xlink:href="#Cmr10-65" x="2074.21875"/>
     <use xlink:href="#Cmr10-73" x="2118.603516"/>
    </g>
   </g>
   <g id="text_18">
    <!-- Background diagnostic - tess2021175071901-s0040-0000010002018424-0211-s_lc -->
    <g transform="translate(10.011875 11.926875) scale(0.12 -0.12)">
     <defs>
      <path id="Cmr10-42" d="M 219 0
L 219 225
Q 878 225 878 428
L 878 3944
Q 878 4147 219 4147
L 219 4372
L 2572 4372
Q 2897 4372 3228 4245
Q 3559 4119 3776 3870
Q 3994 3622 3994 3284
Q 3994 2894 3673 2630
Q 3353 2366 2925 2284
Q 3203 2284 3497 2131
Q 3791 1978 3978 1722
Q 4166 1466 4166 1178
Q 4166 828 3958 559
Q 3750 291 3419 145
Q 3088 0 2753 0
L 219 0
z
M 1434 428
Q 1434 291 1512 258
Q 1591 225 1759 225
L 2572 225
Q 2822 225 3036 356
Q 3250 488 3375 708
Q 3500 928 3500 1178
Q 3500 1422 3397 1655
Q 3294 1888 3101 2038
Q 2909 2188 2663 2188
L 1434 2188
L 1434 428
z
M 1434 2356
L 2394 2356
Q 2588 2356 2758 2426
Q 2928 2497 3064 2630
Q 3200 2763 3273 2930
Q 3347 3097 3347 3284
Q 3347 3450 3292 3603
Q 3238 3756 3131 3881
Q 3025 4006 2881 4076
Q 2738 4147 2572 4147
L 1759 4147
Q 1644 4147 1580 4137
Q 1516 4128 1475 4083
Q 1434 4038 1434 3944
L 1434 2356
z
" transform="scale(0.015625)"/>
      <path id="Cmr10-37" d="M 1113 166
Q 1113 522 1175 862
Q 1238 1203 1358 1536
Q 1478 1869 1648 2189
Q 1819 2509 2022 2791
L 2606 3603
L 1875 3603
Q 738 3603 703 3572
Q 619 3469 544 2981
L 359 2981
L 569 4325
L 756 4325
L 756 4306
Q 756 4191 1147 4156
Q 1538 4122 1913 4122
L 3103 4122
L 3103 3956
Q 3103 3950 3101 3947
Q 3100 3944 3097 3938
L 2216 2700
Q 1891 2219 1809 1631
Q 1728 1044 1728 166
Q 1728 41 1637 -50
Q 1547 -141 1422 -141
Q 1294 -141 1203 -50
Q 1113 41 1113 166
z
" transform="scale(0.015625)"/>
      <path id="Cmr10-39" d="M 722 269
Q 897 63 1331 63
Q 1575 63 1786 228
Q 1997 394 2113 634
Q 2247 906 2284 1214
Q 2322 1522 2322 1978
Q 2213 1719 2008 1553
Q 1803 1388 1538 1388
Q 1166 1388 873 1589
Q 581 1791 425 2120
Q 269 2450 269 2822
Q 269 3206 444 3539
Q 619 3872 928 4067
Q 1238 4263 1631 4263
Q 2019 4263 2280 4052
Q 2541 3841 2678 3508
Q 2816 3175 2870 2803
Q 2925 2431 2925 2069
Q 2925 1575 2744 1061
Q 2563 547 2202 203
Q 1841 -141 1331 -141
Q 953 -141 690 37
Q 428 216 428 575
Q 428 706 517 795
Q 606 884 738 884
Q 866 884 955 795
Q 1044 706 1044 575
Q 1044 450 953 359
Q 863 269 738 269
L 722 269
z
M 1563 1556
Q 1825 1556 1992 1732
Q 2159 1909 2234 2171
Q 2309 2434 2309 2694
L 2309 2816
L 2309 2841
Q 2309 3322 2168 3700
Q 2028 4078 1631 4078
Q 1378 4078 1220 3967
Q 1063 3856 988 3672
Q 913 3488 892 3278
Q 872 3069 872 2822
Q 872 2459 906 2203
Q 941 1947 1094 1751
Q 1247 1556 1563 1556
z
" transform="scale(0.015625)"/>
      <path id="Cmr10-5f" d="M 538 3928
Q 538 4069 644 4175
Q 750 4281 891 4281
Q 978 4281 1062 4234
Q 1147 4188 1194 4103
Q 1241 4019 1241 3928
Q 1241 3791 1137 3684
Q 1034 3578 891 3578
Q 750 3578 644 3684
Q 538 3791 538 3928
z
" transform="scale(0.015625)"/>
     </defs>
     <use xlink:href="#Cmr10-42"/>
     <use xlink:href="#Cmr10-61" x="70.800781"/>
     <use xlink:href="#Cmr10-63" x="120.800781"/>
     <use xlink:href="#Cmr10-6b" x="165.185547"/>
     <use xlink:href="#Cmr10-67" x="217.871094"/>
     <use xlink:href="#Cmr10-72" x="267.871094"/>
     <use xlink:href="#Cmr10-6f" x="306.982422"/>
     <use xlink:href="#Cmr10-75" x="356.982422"/>
     <use xlink:href="#Cmr10-6e" x="412.5"/>
     <use xlink:href="#Cmr10-64" x="468.017578"/>
     <use xlink:href="#Cmr10-20" x="523.535156"/>
     <use xlink:href="#Cmr10-64" x="556.835938"/>
     <use xlink:href="#Cmr10-69" x="612.353516"/>
     <use xlink:href="#Cmr10-61" x="640.039062"/>
     <use xlink:href="#Cmr10-67" x="690.039062"/>
     <use xlink:href="#Cmr10-6e" x="740.039062"/>
     <use xlink:href="#Cmr10-6f" x="795.556641"/>
     <use xlink:href="#Cmr10-73" x="845.556641"/>
     <use xlink:href="#Cmr10-74" x="884.960938"/>
     <use xlink:href="#Cmr10-69" x="923.779297"/>
     <use xlink:href="#Cmr10-63" x="951.464844"/>
     <use xlink:href="#Cmr10-20" x="995.849609"/>
     <use xlink:href="#Cmr10-2d" x="1029.150391"/>
     <use xlink:href="#Cmr10-20" x="1062.451172"/>
     <use xlink:href="#Cmr10-74" x="1095.751953"/>
     <use xlink:href="#Cmr10-65" x="1134.570312"/>
     <use xlink:href="#Cmr10-73" x="1178.955078"/>
     <use xlink:href="#Cmr10-73" x="1218.359375"/>
     <use xlink:href="#Cmr10-32" x="1257.763672"/>
     <use xlink:href="#Cmr10-30" x="1307.763672"/>
     <use xlink:href="#Cmr10-32" x="1357.763672"/>
     <use xlink:href="#Cmr10-31" x="1407.763672"/>
     <use xlink:href="#Cmr10-31" x="1457.763672"/>
     <use xlink:href="#Cmr10-37" x="1507.763672"/>
     <use xlink:href="#Cmr10-35" x="1557.763672"/>
     <use xlink:href="#Cmr10-30" x="1607.763672"/>
     <use xlink:href="#Cmr10-37" x="1657.763672"/>
     <use xlink:href="#Cmr10-31" x="1707.763672"/>
     <use xlink:href="#Cmr10-39" x="1757.763672"/>
     <use xlink:href="#Cmr10-30" x="1807.763672"/>
     <use xlink:href="#Cmr10-31" x="1857.763672"/>
     <use xlink:href="#Cmr10-2d" x="1907.763672"/>
     <use xlink:href="#Cmr10-73" x="1941.064453"/>
     <use xlink:href="#Cmr10-30" x="1980.46875"/>
     <use xlink:href="#Cmr10-30" x="2030.46875"/>
     <use xlink:href="#Cmr10-34" x="2080.46875"/>
     <use xlink:href="#Cmr10-30" x="2130.46875"/>
     <use xlink:href="#Cmr10-2d" x="2180.46875"/>
     <use xlink:href="#Cmr10-30" x="2213.769531"/>
     <use xlink:href="#Cmr10-30" x="2263.769531"/>
     <use xlink:href="#Cmr10-30" x="2313.769531"/>
     <use xlink:href="#Cmr10-30" x="2363.769531"/>
     <use xlink:href="#Cmr10-30" x="2413.769531"/>
     <use xlink:href="#Cmr10-31" x="2463.769531"/>
     <use xlink:href="#Cmr10-30" x="2513.769531"/>
     <use xlink:href="#Cmr10-30" x="2563.769531"/>
     <use xlink:href="#Cmr10-30" x="2613.769531"/>
     <use xlink:href="#Cmr10-32" x="2663.769531"/>
     <use xlink:href="#Cmr10-30" x="2713.769531"/>
     <use xlink:href="#Cmr10-31" x="2763.769531"/>
     <use xlink:href="#Cmr10-38" x="2813.769531"/>
     <use xlink:href="#Cmr10-34" x="2863.769531"/>
     <use xlink:href="#Cmr10-32" x="2913.769531"/>
     <use xlink:href="#Cmr10-34" x="2963.769531"/>
     <use xlink:href="#Cmr10-2d" x="3013.769531"/>
     <use xlink:href="#Cmr10-30" x="3047.070312"/>
     <use xlink:href="#Cmr10-32" x="3097.070312"/>
     <use xlink:href="#Cmr10-31" x="3147.070312"/>
     <use xlink:href="#Cmr10-31" x="3197.070312"/>
     <use xlink:href="#Cmr10-2d" x="3247.070312"/>
     <use xlink:href="#Cmr10-73" x="3280.371094"/>
     <use xlink:href="#Cmr10-5f" x="3319.775391"/>
     <use xlink:href="#Cmr10-6c" x="3347.460938"/>
     <use xlink:href="#Cmr10-63" x="3375.146484"/>
    </g>
   </g>
   <g id="legend_1">
    <g id="patch_37">
     <path d="M 54.982813 30.768125
L 70.982813 30.768125
L 70.982813 25.168125
L 54.982813 25.168125
z
" style="fill: #1f77b4; opacity: 0.6"/>
    </g>
    <g id="text_19">
     <!-- unflagged -->
     <g transform="translate(77.382812 30.768125) scale(0.08 -0.08)">
      <use xlink:href="#Cmr10-75"/>
      <use xlink:href="#Cmr10-6e" x="55.517578"/>
      <use xlink:href="#Cmr10-66" x="111.035156"/>
      <use xlink:href="#Cmr10-6c" x="141.552734"/>
      <use xlink:href="#Cmr10-61" x="169.238281"/>
      <use xlink:href="#Cmr10-67" x="219.238281"/>
      <use xlink:href="#Cmr10-67" x="269.238281"/>
      <use xlink:href="#Cmr10-65" x="319.238281"/>
      <use xlink:href="#Cmr10-64" x="363.623047"/>
     </g>
    </g>
   </g>
  </g>
 </g>
 <defs>
  <clipPath id="p540be22513">
   <rect x="47.782813" y="17.926875" width="334.8" height="249.48"/>
  </clipPath>
 </defs>
</svg>
